<svg width="181" height="60" viewBox="0 0 181 60" fill="none" xmlns="http://www.w3.org/2000/svg">
<path d="M12.7642 0.00300111C13.3174 1.23946e-06 13.8654 1.23962e-06 14.42 1.23962e-06H166.564C167.108 1.23962e-06 167.66 -0.000148754 168.203 0.00285112C168.58 0.00517792 168.964 0.0115041 169.343 0.0177481C169.428 0.0191518 169.513 0.0205513 169.598 0.0219003C170.611 0.0330421 171.623 0.121651 172.623 0.286939C173.626 0.456312 174.599 0.773289 175.508 1.2274C177.327 2.15396 178.808 3.62271 179.741 5.42707C180.197 6.32605 180.513 7.28862 180.678 8.28175C180.846 9.2744 180.94 10.2781 180.958 11.2846C180.964 11.7447 180.964 12.206 180.964 12.6661C180.976 13.2095 180.976 13.7543 180.976 14.3037V45.6953C180.976 46.249 180.976 46.791 180.964 47.3359C180.964 47.8016 180.964 48.2528 180.958 48.7187C180.94 49.7251 180.846 50.7288 180.677 51.7214C180.514 52.7152 180.198 53.6784 179.741 54.5777C179.277 55.4728 178.674 56.29 177.954 56.9991C177.24 57.7143 176.414 58.3112 175.508 58.7671C174.599 59.2224 173.626 59.5413 172.623 59.7132C171.623 59.8772 170.611 59.9659 169.598 59.9784C169.137 59.9886 168.664 59.9945 168.203 59.9945C167.66 59.9975 167.108 59.9975 166.564 59.9975H14.42C13.8654 59.9975 13.3174 59.9975 12.7644 59.9945C12.3013 59.9945 11.8418 59.9886 11.3745 59.9784C10.359 59.9651 9.346 59.8765 8.34388 59.7132C7.34321 59.5425 6.3741 59.2235 5.46902 58.7671C4.56288 58.3115 3.73639 57.7146 3.0211 56.9991C2.29919 56.2927 1.69743 55.475 1.23923 54.5777C0.779109 53.679 0.460344 52.7158 0.294004 51.7214C0.12563 50.729 0.0350202 49.7251 0.022988 48.7188C0.013371 48.4002 0.00962261 48.0885 0.00584468 47.7743C0.0040973 47.629 0.0023436 47.4832 0 47.3359V12.6661C0.00237107 12.5189 0.00413832 12.3715 0.00590611 12.2242C0.00966342 11.9109 0.0134232 11.5975 0.022988 11.2848C0.0350088 10.2784 0.125619 9.27442 0.294004 8.2819C0.460792 7.28809 0.779538 6.32535 1.23923 5.42692C1.69765 4.52679 2.29932 3.70581 3.0211 2.99552C3.73911 2.28319 4.56507 1.68665 5.46902 1.22755C6.37411 0.772322 7.34332 0.455261 8.34388 0.287089C9.34583 0.122501 10.359 0.0338978 11.3745 0.0220503C11.4703 0.0205448 11.5657 0.0189826 11.6609 0.0174244C12.0303 0.0113757 12.3961 0.00538648 12.7642 0.00300111Z" fill="black"/>
<path d="M12.7713 58.6852C12.3105 58.6852 11.8609 58.6794 11.4037 58.6692C10.4566 58.657 9.5118 58.5753 8.57692 58.4247C7.70519 58.2757 6.86072 57.9987 6.07138 57.6027C5.28924 57.2101 4.57588 56.6952 3.9586 56.0779C3.33234 55.4678 2.81095 54.7603 2.41508 53.9832C2.01489 53.2011 1.73794 52.3628 1.59387 51.4975C1.43833 50.5677 1.3542 49.6276 1.34221 48.6851C1.33253 48.3688 1.31998 47.3157 1.31998 47.3157V12.6661C1.31998 12.6661 1.33329 11.6291 1.34221 11.3243C1.35373 10.3834 1.43741 9.44471 1.59251 8.5164C1.73686 7.64871 2.01405 6.80799 2.41448 6.02335C2.80882 5.24683 3.32726 4.53871 3.94968 3.92644C4.57144 3.30835 5.28712 2.79083 6.07062 2.39275C6.85817 1.99812 7.70105 1.72311 8.57102 1.57694C9.50898 1.42488 10.4571 1.3427 11.4075 1.3311L12.7721 1.3125H168.196L169.577 1.33155C170.519 1.34265 171.458 1.42417 172.388 1.57544C173.266 1.72348 174.118 2.00046 174.915 2.39725C176.484 3.19947 177.761 4.46867 178.567 6.02695C178.961 6.80622 179.234 7.64012 179.376 8.50035C179.533 9.43625 179.621 10.3823 179.639 11.3309C179.644 11.7557 179.644 12.2119 179.644 12.6661C179.656 13.2286 179.656 13.7639 179.656 14.3038V45.6953C179.656 46.2402 179.656 46.772 179.644 47.3081C179.644 47.7958 179.644 48.2427 179.638 48.7025C179.62 49.6343 179.534 50.5635 179.379 51.4827C179.238 52.3542 178.962 53.1991 178.562 53.9876C178.164 54.7562 177.645 55.4576 177.027 56.066C176.409 56.6867 175.694 57.2046 174.91 57.5997C174.116 57.9987 173.265 58.2767 172.388 58.4244C171.453 58.5758 170.508 58.6576 169.561 58.669C169.108 58.6795 168.656 58.6849 168.203 58.6851L166.564 58.6881L12.7713 58.6852Z" fill="black"/>
<path d="M37.4601 30.4502C37.4764 29.1983 37.8117 27.9708 38.4348 26.8819C39.0579 25.7931 39.9486 24.8782 41.024 24.2225C40.3408 23.2548 39.4395 22.4584 38.3917 21.8966C37.3439 21.3348 36.1785 21.023 34.988 20.9861C32.4483 20.7216 29.9863 22.4932 28.692 22.4932C27.3729 22.4932 25.3804 21.0123 23.2348 21.0561C21.8469 21.1006 20.4943 21.5008 19.3088 22.2178C18.1232 22.9349 17.1452 23.9443 16.47 25.1476C13.545 30.1702 15.7268 37.5514 18.5287 41.6111C19.9306 43.5991 21.5688 45.8196 23.7125 45.7409C25.8102 45.6546 26.5936 44.4142 29.1259 44.4142C31.6346 44.4142 32.3696 45.7409 34.5568 45.6908C36.8078 45.6546 38.226 43.6941 39.5786 41.6873C40.5858 40.2708 41.3608 38.7053 41.875 37.0487C40.5672 36.5002 39.4512 35.5819 38.6661 34.4085C37.881 33.2351 37.4616 31.8585 37.4601 30.4502ZM33.3289 18.316C34.5562 16.8548 35.1609 14.9766 35.0144 13.0804C33.1394 13.2757 31.4073 14.1645 30.1634 15.5697C29.5552 16.2561 29.0894 17.0547 28.7926 17.9199C28.4958 18.785 28.3738 19.6996 28.4337 20.6115C29.3716 20.6211 30.2994 20.4195 31.1474 20.0219C31.9953 19.6243 32.7412 19.041 33.3289 18.316ZM63.977 40.7083H56.8184L55.0993 45.7427H52.067L58.8477 27.1165H61.9979L68.7785 45.7427H65.6946L63.977 40.7083ZM57.5597 38.385H63.2341L60.4369 30.2146H60.3585L57.5597 38.385ZM83.4221 38.9535C83.4221 43.1734 81.1446 45.8847 77.7079 45.8847C76.8373 45.9299 75.9715 45.731 75.2095 45.3108C74.4476 44.8906 73.8204 44.2661 73.3997 43.5088H73.3346V50.2351H70.5241V32.1627H73.2446V34.4215H73.2964C73.7364 33.6678 74.3742 33.0465 75.1419 32.6238C75.9096 32.201 76.7786 31.9926 77.6562 32.0207C81.1313 32.0207 83.4221 34.7451 83.4221 38.9534V38.9535ZM80.5332 38.9535C80.5332 36.2041 79.1007 34.3966 76.9149 34.3966C74.7673 34.3966 73.323 36.2421 73.323 38.9534C73.323 41.6897 74.7673 43.5222 76.9149 43.5222C79.1007 43.5222 80.5332 41.7278 80.5332 38.9534V38.9535ZM98.4925 38.9535C98.4925 43.1734 96.2152 45.8847 92.7784 45.8847C91.9078 45.9299 91.042 45.731 90.28 45.3108C89.5181 44.8906 88.8909 44.2661 88.4702 43.5088H88.4052V50.2351H85.5946V32.1627H88.3151V34.4215H88.3668C88.8068 33.6678 89.4446 33.0465 90.2123 32.6238C90.9801 32.201 91.849 31.9926 92.7266 32.0207C96.2019 32.0207 98.4925 34.7451 98.4925 38.9534V38.9535ZM95.6038 38.9535C95.6038 36.2041 94.1711 34.3966 91.9853 34.3966C89.8377 34.3966 88.3934 36.2421 88.3934 38.9534C88.3934 41.6897 89.8377 43.5222 91.9853 43.5222C94.1711 43.5222 95.6038 41.7278 95.6038 38.9534V38.9535ZM108.453 40.553C108.661 42.4001 110.47 43.6129 112.943 43.6129C115.312 43.6129 117.016 42.4001 117.016 40.7345C117.016 39.2887 115.988 38.4231 113.554 37.8299L111.12 37.2484C107.672 36.4222 106.071 34.8227 106.071 32.227C106.071 29.0133 108.895 26.806 112.904 26.806C116.873 26.806 119.593 29.0133 119.685 32.227H116.848C116.678 30.3683 115.129 29.2462 112.864 29.2462C110.6 29.2462 109.051 30.3815 109.051 32.0337C109.051 33.3507 110.041 34.1255 112.461 34.7186L114.53 35.2226C118.384 36.1263 119.985 37.6615 119.985 40.3858C119.985 43.8706 117.186 46.0532 112.734 46.0532C108.569 46.0532 105.757 43.9218 105.576 40.5529L108.453 40.553ZM126.05 28.9491V32.1627H128.654V34.3702H126.05V41.8566C126.05 43.0197 126.572 43.5616 127.716 43.5616C128.026 43.5563 128.334 43.5347 128.641 43.4971V45.6915C128.126 45.7868 127.603 45.8299 127.08 45.8202C124.308 45.8202 123.227 44.7877 123.227 42.1539V34.3702H121.236V32.1627H123.227V28.9491H126.05ZM130.162 38.9535C130.162 34.6806 132.7 31.9958 136.656 31.9958C140.626 31.9958 143.152 34.6806 143.152 38.9535C143.152 43.2379 140.639 45.9111 136.656 45.9111C132.674 45.9111 130.162 43.2379 130.162 38.9535ZM140.288 38.9535C140.288 36.0225 138.934 34.2925 136.656 34.2925C134.379 34.2925 133.026 36.0355 133.026 38.9535C133.026 41.8962 134.379 43.6129 136.656 43.6129C138.934 43.6129 140.288 41.8962 140.288 38.9535ZM145.469 32.1627H148.15V34.4741H148.215C148.396 33.7522 148.822 33.1142 149.422 32.6674C150.022 32.2206 150.759 31.9922 151.508 32.0207C151.832 32.0195 152.155 32.0544 152.471 32.1246V34.7319C152.062 34.608 151.636 34.5511 151.208 34.5635C150.8 34.5471 150.393 34.6185 150.015 34.7728C149.637 34.9271 149.298 35.1607 149.019 35.4575C148.741 35.7543 148.531 36.1074 148.403 36.4924C148.276 36.8774 148.233 37.2852 148.28 37.6879V45.7427H145.469V32.1627ZM165.43 41.754C165.051 44.2193 162.631 45.9111 159.534 45.9111C155.55 45.9111 153.078 43.2643 153.078 39.0179C153.078 34.7583 155.564 31.9958 159.415 31.9958C163.204 31.9958 165.586 34.5767 165.586 38.6942V39.6492H155.915V39.8176C155.871 40.3174 155.934 40.8209 156.1 41.2946C156.267 41.7684 156.533 42.2015 156.882 42.5654C157.23 42.9292 157.652 43.2153 158.121 43.4048C158.589 43.5942 159.093 43.6827 159.599 43.6642C160.263 43.726 160.929 43.5734 161.499 43.2292C162.069 42.8851 162.511 42.3677 162.761 41.754H165.43ZM155.929 37.7011H162.774C162.799 37.2517 162.731 36.802 162.572 36.3802C162.414 35.9584 162.169 35.5736 161.854 35.2499C161.539 34.9263 161.159 34.6708 160.74 34.4995C160.32 34.3281 159.869 34.2447 159.415 34.2544C158.958 34.2517 158.504 34.3389 158.081 34.511C157.657 34.6831 157.272 34.9367 156.948 35.2572C156.624 35.5776 156.367 35.9585 156.192 36.378C156.017 36.7975 155.927 37.2471 155.929 37.7011ZM57.2075 13.0964C57.7968 13.0545 58.3881 13.1427 58.9387 13.3549C59.4894 13.567 59.9858 13.8977 60.392 14.3232C60.7982 14.7486 61.1041 15.2582 61.2877 15.815C61.4713 16.3719 61.528 16.9623 61.4536 17.5436C61.4536 20.4027 59.8954 22.0464 57.2075 22.0464H53.9479V13.0963L57.2075 13.0964ZM55.3496 20.7806H57.051C57.472 20.8055 57.8934 20.737 58.2844 20.5801C58.6754 20.4232 59.0261 20.1818 59.3112 19.8734C59.5963 19.5651 59.8084 19.1976 59.9322 18.7977C60.056 18.3978 60.0883 17.9756 60.0269 17.5617C60.0839 17.1495 60.0483 16.7299 59.9226 16.3329C59.7969 15.9359 59.5842 15.5714 59.2998 15.2655C59.0154 14.9597 58.6663 14.72 58.2775 14.5636C57.8887 14.4072 57.4699 14.3381 57.051 14.3612H55.3496V20.7806ZM63.0369 18.6663C62.9941 18.2224 63.0453 17.7746 63.1872 17.3515C63.3291 16.9284 63.5586 16.5394 63.861 16.2094C64.1634 15.8795 64.532 15.6158 64.9431 15.4354C65.3542 15.255 65.7989 15.1618 66.2484 15.1618C66.698 15.1618 67.1426 15.255 67.5538 15.4354C67.9649 15.6158 68.3335 15.8795 68.6359 16.2094C68.9383 16.5394 69.1678 16.9284 69.3097 17.3515C69.4516 17.7746 69.5028 18.2224 69.4599 18.6663C69.5037 19.1106 69.4532 19.5592 69.3117 19.9831C69.1702 20.4069 68.9409 20.7967 68.6384 21.1274C68.336 21.4582 67.9671 21.7224 67.5555 21.9033C67.1438 22.0841 66.6986 22.1776 66.2484 22.1776C65.7982 22.1776 65.353 22.0841 64.9414 21.9033C64.5298 21.7224 64.1609 21.4582 63.8585 21.1274C63.556 20.7967 63.3266 20.4069 63.1852 19.9831C63.0437 19.5592 62.9932 19.1106 63.0369 18.6663ZM68.0776 18.6663C68.0776 17.2022 67.4145 16.346 66.2507 16.346C65.0824 16.346 64.4253 17.2022 64.4253 18.6663C64.4253 20.1421 65.0826 20.9916 66.2507 20.9916C67.4145 20.9916 68.0776 20.1362 68.0776 18.6663ZM77.9982 22.0462H76.6038L75.1964 17.0718H75.09L73.6885 22.0462H72.3076L70.4304 15.292H71.7935L73.0136 20.4458H73.114L74.5141 15.292H75.8034L77.2036 20.4458H77.3099L78.5239 15.292H79.8679L77.9982 22.0462ZM81.4467 15.2922H82.7405V16.3651H82.8409C83.0113 15.9797 83.2986 15.6566 83.6629 15.4409C84.0272 15.2252 84.4503 15.1276 84.8732 15.1617C85.2046 15.137 85.5373 15.1865 85.8467 15.3067C86.1562 15.4268 86.4344 15.6145 86.6607 15.8557C86.8871 16.097 87.0558 16.3856 87.1545 16.7004C87.2531 17.0151 87.279 17.3477 87.2304 17.6738V22.0461H85.8864V18.0085C85.8864 16.9232 85.4107 16.3834 84.4168 16.3834C84.1918 16.373 83.9673 16.411 83.7585 16.4947C83.5497 16.5785 83.3616 16.706 83.2072 16.8686C83.0527 17.0311 82.9356 17.2249 82.8637 17.4366C82.7918 17.6482 82.7669 17.8728 82.7907 18.0949V22.0462H81.4467V15.2922ZM89.3719 12.6554H90.7158V22.0462H89.3719V12.6554ZM92.5842 18.6663C92.5414 18.2224 92.5925 17.7745 92.7345 17.3513C92.8764 16.9282 93.106 16.5391 93.4084 16.2091C93.7108 15.8791 94.0794 15.6154 94.4906 15.435C94.9018 15.2546 95.3465 15.1613 95.7961 15.1613C96.2458 15.1613 96.6905 15.2546 97.1017 15.435C97.5129 15.6154 97.8815 15.8791 98.1839 16.2091C98.4863 16.5391 98.7159 16.9282 98.8578 17.3513C98.9997 17.7745 99.0509 18.2224 99.0081 18.6663C99.0516 19.1106 99.001 19.559 98.8593 19.9827C98.7177 20.4065 98.4883 20.7961 98.1858 21.1267C97.8833 21.4573 97.5145 21.7214 97.1029 21.9022C96.6914 22.0829 96.2462 22.1763 95.7961 22.1763C95.346 22.1763 94.9009 22.0829 94.4894 21.9022C94.0778 21.7214 93.709 21.4573 93.4065 21.1267C93.104 20.7961 92.8746 20.4065 92.7329 19.9827C92.5913 19.559 92.5407 19.1106 92.5842 18.6663ZM97.6249 18.6663C97.6249 17.2022 96.9617 16.346 95.798 16.346C94.6297 16.346 93.9725 17.2022 93.9725 18.6663C93.9725 20.1421 94.6298 20.9916 95.798 20.9916C96.9617 20.9916 97.6249 20.1362 97.6249 18.6663ZM100.423 20.1362C100.423 18.9204 101.336 18.2194 102.956 18.1198L104.8 18.0144V17.4314C104.8 16.718 104.325 16.3153 103.406 16.3153C102.656 16.3153 102.136 16.5884 101.987 17.066H100.686C100.823 15.9058 101.923 15.1618 103.468 15.1618C105.176 15.1618 106.139 16.0048 106.139 17.4314V22.0462H104.845V21.0971H104.738C104.523 21.4375 104.22 21.7151 103.86 21.9014C103.501 22.0877 103.098 22.1761 102.693 22.1575C102.407 22.187 102.118 22.1568 101.845 22.0687C101.571 21.9807 101.32 21.8368 101.106 21.6464C100.892 21.4559 100.721 21.2231 100.603 20.963C100.485 20.7029 100.424 20.4213 100.423 20.1362ZM104.8 19.559V18.9943L103.137 19.0998C102.2 19.162 101.774 19.4785 101.774 20.0738C101.774 20.6817 102.306 21.0356 103.037 21.0356C103.251 21.0571 103.468 21.0356 103.673 20.9725C103.879 20.9094 104.07 20.8058 104.234 20.6681C104.399 20.5303 104.534 20.3611 104.631 20.1706C104.728 19.9801 104.786 19.7721 104.8 19.559ZM107.905 18.6663C107.905 16.532 109.011 15.1801 110.732 15.1801C111.157 15.1607 111.58 15.2618 111.95 15.4716C112.319 15.6814 112.621 15.9913 112.82 16.3651H112.921V12.6553H114.265V22.0461H112.977V20.9789H112.87C112.656 21.3501 112.344 21.6562 111.967 21.8639C111.59 22.0716 111.163 22.1731 110.732 22.1574C108.999 22.1574 107.905 20.8053 107.905 18.6661V18.6663ZM109.293 18.6663C109.293 20.0987 109.974 20.9609 111.113 20.9609C112.246 20.9609 112.946 20.0864 112.946 18.672C112.946 17.2644 112.238 16.3775 111.113 16.3775C109.982 16.3775 109.293 17.2454 109.293 18.6663ZM119.825 18.6663C119.782 18.2224 119.834 17.7746 119.975 17.3515C120.117 16.9284 120.347 16.5394 120.649 16.2094C120.952 15.8795 121.32 15.6158 121.731 15.4354C122.143 15.255 122.587 15.1618 123.037 15.1618C123.486 15.1618 123.931 15.255 124.342 15.4354C124.753 15.6158 125.122 15.8795 125.424 16.2094C125.727 16.5394 125.956 16.9284 126.098 17.3515C126.24 17.7746 126.291 18.2224 126.248 18.6663C126.292 19.1106 126.242 19.5592 126.1 19.9831C125.959 20.4069 125.729 20.7967 125.427 21.1274C125.124 21.4582 124.755 21.7224 124.344 21.9033C123.932 22.0841 123.487 22.1776 123.037 22.1776C122.587 22.1776 122.141 22.0841 121.73 21.9033C121.318 21.7224 120.949 21.4582 120.647 21.1274C120.344 20.7967 120.115 20.4069 119.973 19.9831C119.832 19.5592 119.781 19.1106 119.825 18.6663ZM124.866 18.6663C124.866 17.2022 124.203 16.346 123.039 16.346C121.871 16.346 121.214 17.2022 121.214 18.6663C121.214 20.1421 121.871 20.9916 123.039 20.9916C124.203 20.9916 124.866 20.1362 124.866 18.6663ZM128.052 15.2922H129.345V16.3651H129.446C129.616 15.9797 129.904 15.6566 130.268 15.4409C130.632 15.2252 131.055 15.1276 131.478 15.1617C131.81 15.137 132.142 15.1865 132.452 15.3067C132.761 15.4268 133.039 15.6145 133.266 15.8557C133.492 16.097 133.661 16.3856 133.759 16.7004C133.858 17.0151 133.884 17.3477 133.835 17.6738V22.0461H132.491V18.0085C132.491 16.9232 132.016 16.3834 131.022 16.3834C130.797 16.373 130.572 16.411 130.363 16.4947C130.155 16.5785 129.967 16.706 129.812 16.8686C129.658 17.0311 129.54 17.2249 129.469 17.4366C129.397 17.6482 129.372 17.8728 129.396 18.0949V22.0462H128.052L128.052 15.2922ZM141.43 13.6106V15.3229H142.905V16.4456H141.43V19.9186C141.43 20.6261 141.724 20.936 142.393 20.936C142.564 20.9354 142.735 20.9251 142.905 20.9051V22.0155C142.664 22.0583 142.419 22.0811 142.174 22.0836C140.679 22.0836 140.084 21.562 140.084 20.26V16.4456H139.003V15.3228H140.084V13.6107L141.43 13.6106ZM144.741 12.6554H146.073V16.3775H146.179C146.358 15.9885 146.653 15.6636 147.025 15.4471C147.396 15.2306 147.826 15.133 148.256 15.1675C148.586 15.1497 148.915 15.2043 149.221 15.3274C149.527 15.4504 149.802 15.6389 150.026 15.8795C150.25 16.12 150.417 16.4066 150.517 16.7188C150.616 17.031 150.645 17.3611 150.601 17.6856V22.0462H149.256V18.0144C149.256 16.9355 148.749 16.3892 147.8 16.3892C147.569 16.3704 147.336 16.4019 147.119 16.4815C146.901 16.5611 146.704 16.6868 146.541 16.8499C146.377 17.013 146.252 17.2096 146.173 17.4257C146.095 17.6419 146.064 17.8726 146.085 18.1015V22.0462H144.741V12.6554ZM158.438 20.2225C158.255 20.8398 157.86 21.3737 157.32 21.731C156.781 22.0882 156.132 22.2459 155.487 22.1766C155.038 22.1883 154.592 22.1031 154.18 21.9268C153.768 21.7505 153.4 21.4874 153.1 21.1557C152.801 20.824 152.578 20.4317 152.447 20.006C152.316 19.5803 152.28 19.1314 152.341 18.6904C152.281 18.2481 152.318 17.7982 152.449 17.3712C152.58 16.9442 152.801 16.55 153.099 16.2154C153.397 15.8808 153.764 15.6136 154.175 15.4317C154.586 15.2499 155.031 15.1578 155.481 15.1617C157.376 15.1617 158.519 16.4456 158.519 18.5665V19.0317H153.71V19.1064C153.689 19.3542 153.721 19.6037 153.802 19.8388C153.884 20.0739 154.015 20.2895 154.186 20.4716C154.356 20.6538 154.564 20.7986 154.794 20.8967C155.025 20.9948 155.273 21.044 155.524 21.0413C155.845 21.0796 156.171 21.0222 156.46 20.8763C156.748 20.7305 156.986 20.5029 157.144 20.2225H158.438ZM153.71 18.0459H157.15C157.167 17.8192 157.136 17.5915 157.059 17.3775C156.982 17.1634 156.86 16.9677 156.702 16.8029C156.545 16.6381 156.354 16.5079 156.142 16.4207C155.93 16.3334 155.703 16.291 155.474 16.2962C155.241 16.2933 155.011 16.3366 154.795 16.4235C154.58 16.5104 154.384 16.6392 154.22 16.8023C154.056 16.9653 153.926 17.1594 153.838 17.373C153.751 17.5865 153.707 17.8154 153.71 18.0459Z" fill="white"/>
</svg>
