<svg width="158" height="53" viewBox="0 0 158 53" fill="none" xmlns="http://www.w3.org/2000/svg">
<path d="M11.097 0.00260913C11.578 1.07757e-06 12.0544 1.07771e-06 12.5365 1.07771e-06H144.809C145.281 1.07771e-06 145.761 -0.000129325 146.234 0.00247872C146.561 0.00450161 146.895 0.0100015 147.225 0.0154299C147.299 0.0166503 147.372 0.017867 147.446 0.0190398C148.327 0.0287263 149.206 0.105762 150.076 0.249461C150.948 0.396711 151.794 0.672287 152.585 1.06708C154.166 1.87262 155.453 3.14953 156.265 4.71822C156.661 5.49978 156.936 6.33662 157.079 7.20004C157.225 8.06304 157.307 8.93567 157.323 9.8107C157.328 10.2106 157.328 10.6118 157.328 11.0117C157.338 11.4841 157.338 11.9578 157.338 12.4354V39.7268C157.338 40.2083 157.338 40.6794 157.328 41.1532C157.328 41.5581 157.328 41.9503 157.323 42.3554C157.307 43.2303 157.225 44.1029 157.078 44.9659C156.936 45.8298 156.662 46.6672 156.265 47.4491C155.861 48.2273 155.337 48.9377 154.711 49.5542C154.09 50.176 153.372 50.695 152.585 51.0913C151.794 51.4871 150.948 51.7643 150.076 51.9139C149.206 52.0564 148.327 52.1335 147.446 52.1444C147.045 52.1533 146.634 52.1584 146.234 52.1584C145.761 52.161 145.281 52.161 144.808 52.161H12.5365C12.0544 52.161 11.578 52.161 11.0972 52.1584C10.6946 52.1584 10.2951 52.1533 9.88884 52.1444C9.00601 52.1329 8.12528 52.0558 7.25405 51.9139C6.38408 51.7654 5.54156 51.4881 4.75469 51.0913C3.96691 50.6952 3.24837 50.1763 2.62651 49.5542C1.99888 48.9401 1.47573 48.2292 1.07737 47.4491C0.677346 46.6678 0.400217 45.8304 0.255603 44.9659C0.109221 44.1031 0.0304461 43.2303 0.0199854 42.3555C0.0116246 42.0785 0.00836576 41.8075 0.00508128 41.5343C0.00356213 41.408 0.00203749 41.2812 0 41.1532V11.0117C0.00206137 10.8837 0.0035978 10.7557 0.00513469 10.6275C0.00840124 10.3552 0.0116699 10.0827 0.0199854 9.81083C0.0304362 8.93588 0.109211 8.06305 0.255603 7.20017C0.400606 6.33616 0.67772 5.49917 1.07737 4.71809C1.47592 3.93553 1.999 3.22178 2.62651 2.60427C3.25073 1.98497 3.96881 1.46635 4.75469 1.06721C5.54156 0.671446 6.38418 0.395798 7.25405 0.249591C8.12513 0.1065 9.00595 0.0294703 9.88884 0.0191702C9.97209 0.0178613 10.055 0.0165032 10.1378 0.0151485C10.459 0.00988985 10.777 0.00468293 11.097 0.00260913Z" fill="black"/>
<path d="M11.1035 51.0202C10.7029 51.0202 10.312 51.0151 9.91449 51.0062C9.09114 50.9956 8.26971 50.9246 7.45694 50.7937C6.69907 50.6642 5.9649 50.4233 5.27866 50.0791C4.59868 49.7377 3.97849 49.2901 3.44184 48.7534C2.89738 48.223 2.44409 47.6079 2.09993 46.9323C1.75201 46.2524 1.51123 45.5236 1.38597 44.7713C1.25075 43.9629 1.17761 43.1456 1.16719 42.3262C1.15877 42.0512 1.14786 41.1357 1.14786 41.1357V11.0118C1.14786 11.0118 1.15943 10.1102 1.16719 9.84521C1.1772 9.02721 1.24995 8.21114 1.38479 7.40408C1.51029 6.64973 1.75128 5.91882 2.0994 5.23666C2.44224 4.56157 2.89296 3.94594 3.43408 3.41364C3.97464 2.87628 4.59684 2.42636 5.278 2.08027C5.96269 1.73718 6.69547 1.49809 7.45181 1.37101C8.26727 1.23881 9.09156 1.16737 9.91778 1.15728L11.1041 1.14111H146.228L147.428 1.15767C148.247 1.16732 149.064 1.2382 149.872 1.36971C150.636 1.49842 151.376 1.73921 152.069 2.08418C153.433 2.78162 154.543 3.88504 155.244 5.23979C155.586 5.91727 155.824 6.64226 155.948 7.39013C156.084 8.20379 156.16 9.02625 156.176 9.85095C156.18 10.2203 156.18 10.6169 156.18 11.0118C156.191 11.5008 156.191 11.9662 156.191 12.4355V39.7269C156.191 40.2007 156.191 40.663 156.18 41.129C156.18 41.5531 156.18 41.9416 156.175 42.3414C156.159 43.1514 156.084 43.9592 155.95 44.7584C155.827 45.5161 155.588 46.2506 155.24 46.9361C154.893 47.6043 154.443 48.2141 153.905 48.7431C153.368 49.2827 152.746 49.7329 152.065 50.0765C151.374 50.4233 150.635 50.665 149.872 50.7934C149.059 50.9251 148.237 50.9962 147.414 51.0061C147.021 51.0152 146.627 51.0199 146.234 51.02L144.809 51.0226L11.1035 51.0202Z" fill="black"/>
<path d="M32.5665 26.4731C32.5806 25.3847 32.8721 24.3176 33.4138 23.3709C33.9556 22.4243 34.7299 21.6289 35.6649 21.0588C35.0709 20.2175 34.2874 19.5252 33.3764 19.0367C32.4655 18.5483 31.4523 18.2773 30.4172 18.2451C28.2092 18.0152 26.0688 19.5554 24.9436 19.5554C23.7968 19.5554 22.0645 18.2679 20.1992 18.306C18.9926 18.3447 17.8166 18.6926 16.786 19.316C15.7553 19.9394 14.905 20.8169 14.3179 21.8631C11.7751 26.2297 13.6718 32.6468 16.1078 36.1762C17.3265 37.9046 18.7508 39.8351 20.6145 39.7666C22.4382 39.6916 23.1193 38.6132 25.3208 38.6132C27.5019 38.6132 28.1409 39.7666 30.0424 39.7231C31.9994 39.6916 33.2323 37.9871 34.4083 36.2425C35.2839 35.011 35.9577 33.65 36.4047 32.2098C35.2678 31.7329 34.2975 30.9346 33.615 29.9144C32.9324 28.8943 32.5678 27.6974 32.5665 26.4731ZM28.9749 15.9238C30.0419 14.6534 30.5675 13.0206 30.4403 11.372C28.8101 11.5418 27.3043 12.3145 26.2228 13.5362C25.6941 14.133 25.2891 14.8273 25.0311 15.5794C24.773 16.3315 24.667 17.1267 24.719 17.9195C25.5344 17.9278 26.3411 17.7526 27.0783 17.4069C27.8155 17.0612 28.4639 16.5541 28.9749 15.9238ZM55.6199 35.3913H49.3963L47.9017 39.7682H45.2655L51.1605 23.5748H53.8993L59.7942 39.7682H57.1132L55.6199 35.3913ZM50.0408 33.3715H54.9741L52.5422 26.2683H52.474L50.0408 33.3715ZM72.5252 33.8658C72.5252 37.5345 70.5452 39.8917 67.5574 39.8917C66.8005 39.931 66.0477 39.758 65.3853 39.3927C64.7229 39.0274 64.1776 38.4845 63.8118 37.8261H63.7553V43.6739H61.3118V27.9619H63.6771V29.9257H63.722C64.1046 29.2704 64.6591 28.7303 65.3265 28.3628C65.994 27.9952 66.7494 27.814 67.5124 27.8384C70.5336 27.8384 72.5252 30.2071 72.5252 33.8656V33.8658ZM70.0136 33.8658C70.0136 31.4755 68.7682 29.904 66.8679 29.904C65.0008 29.904 63.7452 31.5085 63.7452 33.8656C63.7452 36.2446 65.0008 37.8377 66.8679 37.8377C68.7682 37.8377 70.0136 36.2777 70.0136 33.8656V33.8658ZM85.6272 33.8658C85.6272 37.5345 83.6474 39.8917 80.6594 39.8917C79.9025 39.9309 79.1498 39.758 78.4874 39.3927C77.825 39.0274 77.2797 38.4845 76.914 37.8261H76.8574V43.6739H74.414V27.9619H76.7791V29.9257H76.824C77.2066 29.2704 77.7611 28.7303 78.4285 28.3628C79.096 27.9952 79.8514 27.814 80.6144 27.8384C83.6358 27.8384 85.6272 30.2071 85.6272 33.8656V33.8658ZM83.1158 33.8658C83.1158 31.4755 81.8702 29.904 79.9699 29.904C78.1029 29.904 76.8472 31.5085 76.8472 33.8656C76.8472 36.2446 78.1029 37.8377 79.9699 37.8377C81.8702 37.8377 83.1158 36.2777 83.1158 33.8656V33.8658ZM94.2867 35.2564C94.4678 36.8622 96.0407 37.9166 98.19 37.9166C100.25 37.9166 101.731 36.8622 101.731 35.4142C101.731 34.1572 100.838 33.4047 98.7218 32.8889L96.6055 32.3834C93.6075 31.6651 92.2156 30.2745 92.2156 28.0179C92.2156 25.2239 94.6706 23.3049 98.1566 23.3049C101.607 23.3049 103.972 25.2239 104.052 28.0179H101.585C101.437 26.4019 100.09 25.4264 98.1219 25.4264C96.1536 25.4264 94.8067 26.4134 94.8067 27.8498C94.8067 28.9947 95.667 29.6684 97.7714 30.184L99.5703 30.6221C102.92 31.4078 104.312 32.7425 104.312 35.111C104.312 38.1406 101.879 40.0381 98.009 40.0381C94.3879 40.0381 91.9433 38.1851 91.7854 35.2563L94.2867 35.2564ZM109.586 25.1681V27.9619H111.849V29.8811H109.586V36.3897C109.586 37.4008 110.039 37.872 111.034 37.872C111.303 37.8673 111.571 37.8486 111.838 37.8159V39.7237C111.39 39.8066 110.936 39.844 110.481 39.8356C108.071 39.8356 107.131 38.9379 107.131 36.6482V29.8811H105.4V27.9619H107.131V25.1681H109.586ZM113.16 33.8658C113.16 30.151 115.366 27.8168 118.806 27.8168C122.258 27.8168 124.453 30.151 124.453 33.8658C124.453 37.5906 122.269 39.9146 118.806 39.9146C115.345 39.9146 113.16 37.5906 113.16 33.8658ZM121.964 33.8658C121.964 31.3176 120.786 29.8135 118.806 29.8135C116.826 29.8135 115.65 31.3289 115.65 33.8658C115.65 36.4241 116.826 37.9166 118.806 37.9166C120.786 37.9166 121.964 36.4241 121.964 33.8658ZM126.468 27.9619H128.798V29.9714H128.855C129.013 29.3438 129.383 28.7892 129.905 28.4007C130.426 28.0123 131.067 27.8137 131.718 27.8384C132 27.8374 132.281 27.8678 132.556 27.9288V30.1956C132.2 30.0879 131.829 30.0384 131.458 30.0492C131.103 30.0349 130.749 30.0969 130.42 30.2311C130.092 30.3653 129.796 30.5683 129.555 30.8264C129.313 31.0845 129.13 31.3914 129.019 31.7261C128.908 32.0608 128.871 32.4154 128.911 32.7654V39.7682H126.468V27.9619ZM143.821 36.3005C143.493 38.4438 141.388 39.9146 138.696 39.9146C135.233 39.9146 133.083 37.6135 133.083 33.9217C133.083 30.2185 135.244 27.8168 138.593 27.8168C141.886 27.8168 143.957 30.0606 143.957 33.6403V34.4706H135.55V34.617C135.511 35.0515 135.566 35.4892 135.711 35.9011C135.855 36.313 136.087 36.6896 136.39 37.0059C136.693 37.3221 137.06 37.5709 137.467 37.7356C137.875 37.9003 138.313 37.9772 138.752 37.9612C139.329 38.0149 139.909 37.8822 140.404 37.583C140.9 37.2838 141.284 36.834 141.501 36.3005H143.821ZM135.561 32.7769H141.513C141.535 32.3862 141.475 31.9953 141.337 31.6285C141.2 31.2618 140.987 30.9273 140.713 30.6459C140.439 30.3646 140.109 30.1424 139.744 29.9935C139.379 29.8445 138.987 29.772 138.593 29.7804C138.195 29.778 137.8 29.8539 137.432 30.0035C137.064 30.1532 136.729 30.3736 136.448 30.6522C136.166 30.9308 135.942 31.262 135.79 31.6267C135.638 31.9913 135.56 32.3823 135.561 32.7769ZM49.7346 11.386C50.2469 11.3495 50.7609 11.4262 51.2397 11.6107C51.7184 11.7951 52.15 12.0826 52.5031 12.4525C52.8563 12.8224 53.1222 13.2653 53.2818 13.7495C53.4414 14.2337 53.4907 14.7469 53.4261 15.2523C53.4261 17.738 52.0714 19.1669 49.7346 19.1669H46.9007V11.3858L49.7346 11.386ZM48.1193 18.0665H49.5985C49.9646 18.0882 50.3309 18.0286 50.6708 17.8922C51.0107 17.7558 51.3157 17.5459 51.5635 17.2778C51.8113 17.0098 51.9958 16.6903 52.1034 16.3426C52.211 15.9949 52.2392 15.6278 52.1857 15.268C52.2353 14.9097 52.2043 14.5448 52.095 14.1997C51.9858 13.8546 51.8009 13.5377 51.5536 13.2718C51.3063 13.0058 51.0028 12.7974 50.6648 12.6615C50.3268 12.5256 49.9627 12.4655 49.5985 12.4855H48.1193V18.0665ZM54.8026 16.2283C54.7654 15.8424 54.8099 15.4531 54.9333 15.0853C55.0566 14.7174 55.2562 14.3792 55.5191 14.0924C55.7819 13.8055 56.1024 13.5763 56.4598 13.4195C56.8173 13.2626 57.2038 13.1816 57.5947 13.1816C57.9855 13.1816 58.3721 13.2626 58.7295 13.4195C59.0869 13.5763 59.4074 13.8055 59.6703 14.0924C59.9331 14.3792 60.1327 14.7174 60.2561 15.0853C60.3794 15.4531 60.4239 15.8424 60.3867 16.2283C60.4247 16.6147 60.3808 17.0046 60.2578 17.3731C60.1348 17.7416 59.9354 18.0805 59.6725 18.368C59.4095 18.6555 59.0888 18.8853 58.731 19.0425C58.3731 19.1998 57.986 19.281 57.5947 19.281C57.2033 19.281 56.8162 19.1998 56.4584 19.0425C56.1005 18.8853 55.7798 18.6555 55.5168 18.368C55.2539 18.0805 55.0545 17.7416 54.9315 17.3731C54.8085 17.0046 54.7646 16.6147 54.8026 16.2283ZM59.1849 16.2283C59.1849 14.9555 58.6084 14.2111 57.5966 14.2111C56.5809 14.2111 56.0096 14.9555 56.0096 16.2283C56.0096 17.5113 56.5811 18.2499 57.5966 18.2499C58.6084 18.2499 59.1849 17.5063 59.1849 16.2283ZM67.8097 19.1668H66.5974L65.3738 14.8421H65.2814L64.063 19.1668H62.8624L61.2304 13.2948H62.4155L63.4762 17.7754H63.5635L64.7807 13.2948H65.9016L67.1189 17.7754H67.2113L68.2667 13.2948H69.4352L67.8097 19.1668ZM70.8078 13.2949H71.9326V14.2277H72.0199C72.168 13.8926 72.4179 13.6118 72.7346 13.4242C73.0513 13.2367 73.4191 13.1518 73.7868 13.1815C74.0749 13.16 74.3641 13.2031 74.6331 13.3075C74.9021 13.412 75.144 13.5751 75.3408 13.7849C75.5376 13.9946 75.6843 14.2456 75.7701 14.5192C75.8558 14.7928 75.8784 15.082 75.8361 15.3654V19.1667H74.6676V15.6565C74.6676 14.7129 74.2541 14.2436 73.39 14.2436C73.1944 14.2346 72.9991 14.2676 72.8176 14.3404C72.6361 14.4132 72.4726 14.5241 72.3384 14.6654C72.2041 14.8067 72.1022 14.9752 72.0397 15.1592C71.9772 15.3433 71.9556 15.5385 71.9763 15.7316V19.1668H70.8078V13.2949ZM77.6979 11.0026H78.8662V19.1668H77.6979V11.0026ZM80.4906 16.2283C80.4534 15.8424 80.4979 15.453 80.6213 15.0851C80.7447 14.7172 80.9442 14.379 81.2071 14.0921C81.4701 13.8052 81.7905 13.5759 82.148 13.4191C82.5055 13.2622 82.8921 13.1812 83.283 13.1812C83.6739 13.1812 84.0605 13.2622 84.418 13.4191C84.7755 13.5759 85.096 13.8052 85.3589 14.0921C85.6218 14.379 85.8214 14.7172 85.9448 15.0851C86.0682 15.453 86.1127 15.8424 86.0755 16.2283C86.1133 16.6146 86.0692 17.0045 85.9461 17.3728C85.823 17.7412 85.6236 18.08 85.3606 18.3674C85.0976 18.6548 84.7769 18.8844 84.4191 19.0416C84.0613 19.1987 83.6743 19.2799 83.283 19.2799C82.8917 19.2799 82.5047 19.1987 82.1469 19.0416C81.7891 18.8844 81.4684 18.6548 81.2055 18.3674C80.9425 18.08 80.743 17.7412 80.6199 17.3728C80.4968 17.0045 80.4527 16.6146 80.4906 16.2283ZM84.8729 16.2283C84.8729 14.9555 84.2964 14.2111 83.2846 14.2111C82.2689 14.2111 81.6976 14.9555 81.6976 16.2283C81.6976 17.5113 82.269 18.2499 83.2846 18.2499C84.2964 18.2499 84.8729 17.5063 84.8729 16.2283ZM87.3055 17.5063C87.3055 16.4492 88.099 15.8398 89.5076 15.7533L91.1113 15.6616V15.1547C91.1113 14.5345 90.6979 14.1844 89.8992 14.1844C89.247 14.1844 88.7949 14.4219 88.6653 14.8371H87.534C87.6534 13.8284 88.6101 13.1816 89.9531 13.1816C91.4375 13.1816 92.2746 13.9145 92.2746 15.1547V19.1668H91.1498V18.3416H91.0574C90.8697 18.6376 90.6062 18.8789 90.2938 19.0409C89.9814 19.2029 89.6312 19.2797 89.279 19.2636C89.0305 19.2892 88.7793 19.2629 88.5416 19.1864C88.304 19.1098 88.0851 18.9847 87.8992 18.8192C87.7132 18.6536 87.5643 18.4512 87.4621 18.2251C87.3598 17.999 87.3065 17.7541 87.3055 17.5063ZM91.1113 17.0045V16.5135L89.6655 16.6052C88.8501 16.6593 88.4803 16.9344 88.4803 17.452C88.4803 17.9805 88.9426 18.2882 89.5782 18.2882C89.7644 18.3069 89.9526 18.2882 90.1314 18.2333C90.3102 18.1784 90.4761 18.0884 90.6191 17.9687C90.7622 17.8489 90.8794 17.7018 90.964 17.5362C91.0485 17.3705 91.0986 17.1897 91.1113 17.0045ZM93.8103 16.2283C93.8103 14.3728 94.772 13.1975 96.2679 13.1975C96.6379 13.1806 97.0051 13.2685 97.3267 13.4509C97.6482 13.6333 97.9107 13.9028 98.0835 14.2277H98.1708V11.0024H99.3392V19.1667H98.2196V18.2389H98.1272C97.941 18.5616 97.6694 18.8277 97.3417 19.0083C97.014 19.1889 96.6427 19.2771 96.268 19.2634C94.7617 19.2634 93.8103 18.088 93.8103 16.2282V16.2283ZM95.0173 16.2283C95.0173 17.4737 95.6093 18.2232 96.5991 18.2232C97.5839 18.2232 98.1927 17.463 98.1927 16.2333C98.1927 15.0096 97.5776 14.2385 96.5991 14.2385C95.6156 14.2385 95.0173 14.993 95.0173 16.2283ZM104.174 16.2283C104.136 15.8424 104.181 15.4531 104.304 15.0853C104.428 14.7174 104.627 14.3792 104.89 14.0924C105.153 13.8055 105.473 13.5763 105.831 13.4195C106.188 13.2626 106.575 13.1816 106.966 13.1816C107.356 13.1816 107.743 13.2626 108.1 13.4195C108.458 13.5763 108.778 13.8055 109.041 14.0924C109.304 14.3792 109.504 14.7174 109.627 15.0853C109.75 15.4531 109.795 15.8424 109.758 16.2283C109.796 16.6147 109.752 17.0046 109.629 17.3731C109.506 17.7416 109.306 18.0805 109.043 18.368C108.78 18.6555 108.46 18.8853 108.102 19.0425C107.744 19.1998 107.357 19.281 106.966 19.281C106.574 19.281 106.187 19.1998 105.829 19.0425C105.471 18.8853 105.151 18.6555 104.888 18.368C104.625 18.0805 104.425 17.7416 104.302 17.3731C104.179 17.0046 104.136 16.6147 104.174 16.2283ZM108.556 16.2283C108.556 14.9555 107.979 14.2111 106.968 14.2111C105.952 14.2111 105.381 14.9555 105.381 16.2283C105.381 17.5113 105.952 18.2499 106.968 18.2499C107.979 18.2499 108.556 17.5063 108.556 16.2283ZM111.325 13.2949H112.45V14.2277H112.538C112.686 13.8926 112.936 13.6118 113.252 13.4242C113.569 13.2367 113.937 13.1518 114.304 13.1815C114.593 13.16 114.882 13.2031 115.151 13.3075C115.42 13.412 115.662 13.5751 115.858 13.7849C116.055 13.9946 116.202 14.2456 116.288 14.5192C116.373 14.7928 116.396 15.082 116.354 15.3654V19.1667H115.185V15.6565C115.185 14.7129 114.772 14.2436 113.908 14.2436C113.712 14.2346 113.517 14.2676 113.335 14.3404C113.154 14.4132 112.99 14.5241 112.856 14.6654C112.722 14.8067 112.62 14.9752 112.557 15.1592C112.495 15.3433 112.473 15.5385 112.494 15.7316V19.1668H111.326L111.325 13.2949ZM122.956 11.833V13.3216H124.239V14.2977H122.956V17.317C122.956 17.9322 123.212 18.2016 123.793 18.2016C123.942 18.2011 124.091 18.1921 124.239 18.1747V19.1401C124.029 19.1773 123.816 19.1971 123.603 19.1993C122.304 19.1993 121.786 18.7459 121.786 17.6138V14.2977H120.847V13.3215H121.786V11.8331L122.956 11.833ZM125.835 11.0026H126.993V14.2385H127.086C127.241 13.9003 127.498 13.6179 127.821 13.4296C128.144 13.2414 128.517 13.1565 128.891 13.1866C129.177 13.1711 129.464 13.2185 129.73 13.3255C129.996 13.4325 130.235 13.5964 130.429 13.8055C130.624 14.0146 130.77 14.2638 130.857 14.5352C130.943 14.8066 130.968 15.0936 130.93 15.3757V19.1668H129.76V15.6616C129.76 14.7236 129.32 14.2487 128.494 14.2487C128.293 14.2324 128.091 14.2597 127.902 14.3289C127.713 14.3981 127.542 14.5074 127.4 14.6492C127.258 14.791 127.149 14.9619 127.08 15.1498C127.012 15.3378 126.986 15.5383 127.003 15.7374V19.1668H125.835V11.0026ZM137.743 17.5812C137.584 18.1179 137.24 18.5822 136.771 18.8927C136.302 19.2033 135.738 19.3404 135.177 19.2801C134.787 19.2903 134.4 19.2163 134.041 19.063C133.683 18.9097 133.363 18.681 133.103 18.3926C132.842 18.1043 132.648 17.7632 132.534 17.3931C132.42 17.023 132.389 16.6327 132.442 16.2493C132.39 15.8648 132.422 15.4736 132.536 15.1024C132.65 14.7312 132.843 14.3885 133.101 14.0976C133.36 13.8067 133.679 13.5743 134.036 13.4163C134.394 13.2582 134.781 13.1781 135.172 13.1815C136.82 13.1815 137.814 14.2977 137.814 16.1416V16.546H133.633V16.6109C133.614 16.8264 133.642 17.0433 133.713 17.2477C133.784 17.4521 133.898 17.6395 134.046 17.7979C134.194 17.9563 134.375 18.0821 134.575 18.1674C134.775 18.2527 134.991 18.2955 135.209 18.2931C135.489 18.3264 135.772 18.2765 136.023 18.1497C136.274 18.023 136.481 17.8251 136.618 17.5812H137.743ZM133.633 15.689H136.623C136.638 15.4919 136.611 15.294 136.544 15.1078C136.477 14.9217 136.371 14.7516 136.234 14.6083C136.097 14.4651 135.931 14.3519 135.747 14.276C135.563 14.2002 135.365 14.1633 135.166 14.1678C134.964 14.1653 134.763 14.2029 134.576 14.2785C134.389 14.3541 134.219 14.466 134.076 14.6078C133.933 14.7495 133.82 14.9182 133.744 15.1039C133.668 15.2896 133.63 15.4885 133.633 15.689Z" fill="white"/>
</svg>
