<svg width="181" height="60" viewBox="0 0 181 60" fill="none" xmlns="http://www.w3.org/2000/svg">
<path d="M174.274 0H6.70284C3.01632 0 0 3.37486 0 7.49973V52.4979C0 56.6227 3.01626 59.9976 6.70284 59.9976H174.274C177.96 59.9976 180.976 56.6228 180.976 52.4979V7.49973C180.976 3.37486 177.96 0 174.274 0Z" fill="black"/>
<path fill-rule="evenodd" clip-rule="evenodd" d="M6.70284 0H174.274C177.96 0 180.976 3.37486 180.976 7.49973V52.4979C180.976 56.6228 177.96 59.9976 174.274 59.9976H6.70284C3.01626 59.9976 0 56.6227 0 52.4979V7.49973C0 3.37486 3.01632 0 6.70284 0Z" fill="black"/>
<path d="M173.512 59.1197H7.49996C3.88714 59.1197 0.931122 55.8447 0.931122 51.8418V8.174C0.931122 4.17108 3.88708 0.895996 7.49996 0.895996H173.512C177.125 0.895996 180.081 4.17108 180.081 8.174V51.8417C180.081 55.8447 177.125 59.1197 173.512 59.1197Z" fill="black"/>
<path d="M63.5677 15.3649C63.5677 16.6216 63.2351 17.6223 62.569 18.3688C61.8123 19.2564 60.8262 19.7006 59.6139 19.7006C58.453 19.7006 57.4659 19.2506 56.6542 18.3494C55.8411 17.4489 55.4352 16.3322 55.4352 14.9998C55.4352 13.6668 55.8411 12.5507 56.6542 11.6495C57.4659 10.749 58.453 10.2983 59.6139 10.2983C60.19 10.2983 60.7415 10.4244 61.2651 10.6758C61.7887 10.9278 62.2087 11.2622 62.523 11.6811L61.816 12.4727C61.2835 11.7608 60.5503 11.4052 59.6139 11.4052C58.7673 11.4052 58.0352 11.738 57.4173 12.4042C56.7993 13.071 56.4904 13.9358 56.4904 14.9998C56.4904 16.0639 56.7993 16.9285 57.4173 17.5954C58.0352 18.2616 58.7672 18.5944 59.6139 18.5944C60.5121 18.5944 61.261 18.2598 61.8605 17.5896C62.2497 17.153 62.4747 16.5461 62.5349 15.7667H59.6139V14.6857H63.5116C63.5493 14.9208 63.5676 15.1463 63.5676 15.3649" fill="white"/>
<path d="M63.5674 15.3645H63.4333C63.4322 16.5925 63.1117 17.5463 62.4738 18.2623L62.4724 18.2636L62.4718 18.2648C61.7392 19.1218 60.7976 19.5484 59.6136 19.5502C58.4837 19.5484 57.5379 19.1172 56.7481 18.243C55.9601 17.3671 55.5705 16.2977 55.569 14.9994C55.5705 13.7004 55.9601 12.6317 56.7481 11.7564C57.5379 10.8816 58.4837 10.4497 59.6136 10.4479C60.1724 10.4479 60.7044 10.5699 61.2118 10.813C61.7198 11.058 62.121 11.379 62.4199 11.7775L62.5226 11.6807L62.4279 11.5747L61.7208 12.3668L61.8156 12.4723L61.9188 12.3763C61.3615 11.6292 60.5793 11.2525 59.6136 11.2548C58.7355 11.2536 57.9631 11.6046 57.3242 12.2961C56.6791 12.9897 56.355 13.9031 56.356 14.9994C56.355 16.0957 56.6791 17.009 57.3242 17.7028C57.9631 18.3942 58.7355 18.7452 59.6136 18.744C60.5415 18.7458 61.3323 18.3936 61.9549 17.6952C62.3707 17.2287 62.6064 16.5826 62.6682 15.7792L62.6807 15.6163H59.7477V14.8353H63.5113V14.6853L63.3793 14.7117C63.416 14.9391 63.4333 15.1552 63.4333 15.3645H63.7014C63.7014 15.1365 63.6825 14.9022 63.6432 14.6585L63.6234 14.5353H59.4796V15.9163H62.5346V15.7663L62.4011 15.7534C62.342 16.5082 62.1272 17.0765 61.7654 17.4832C61.1894 18.1253 60.4824 18.4422 59.6136 18.444C58.7984 18.4428 58.1066 18.1287 57.5102 17.4872C56.9195 16.8479 56.6257 16.0318 56.6242 14.9994C56.6257 13.967 56.9195 13.1508 57.5102 12.5116C58.1066 11.87 58.7983 11.556 59.6136 11.5548C60.5201 11.5572 61.2046 11.8923 61.7131 12.569L61.8074 12.6944L62.6175 11.7868L62.7044 11.6896L62.6252 11.5846C62.2959 11.1453 61.857 10.7966 61.3177 10.5377C60.7773 10.2781 60.207 10.148 59.6136 10.148C58.4219 10.1468 57.3934 10.6155 56.5592 11.5431C55.7219 12.4688 55.2998 13.6325 55.301 14.9994C55.2998 16.3657 55.7219 17.53 56.5597 18.4563C57.3934 19.3832 58.4219 19.8514 59.6136 19.8502C60.8548 19.8514 61.8843 19.3902 62.6656 18.4721L62.5686 18.3684L62.6634 18.4745C63.3578 17.6981 63.7024 16.6493 63.7014 15.3645H63.5674H63.5674ZM69.7465 11.6052H66.0835V14.4587H69.3868V15.5401H66.0835V18.3936H69.7465V19.4992H65.0508V10.4996H69.7465V11.6052Z" fill="white"/>
<path d="M69.7464 11.6052V11.4552H65.9494V14.6087H69.2527V15.3897L65.9493 15.3901V18.5436H69.6123V19.3492H65.1849V10.6496H69.6123V11.6052H69.7464V11.4552V11.6052H69.8804V10.3496H64.9167V19.6492H69.8804V18.2436H66.2174V15.6901H69.5208V14.3087H66.2174V11.7552H69.8804V11.6052H69.7464ZM74.1048 19.4993H73.0706V11.6051H70.824V10.4995H76.3514V11.6051H74.1048V19.4992" fill="white"/>
<path d="M74.1047 19.4993V19.3492H73.2045V11.4552H70.958V10.6497H76.2171V11.4552H73.9706V19.4992H74.1047V19.3492V19.4992H74.2387V11.7552H76.4852V10.3496H70.6899V11.7551H72.9364V19.6491H74.2387V19.4992H74.1047V19.4993ZM80.3504 19.4993V10.4995H81.3836V19.4992H80.3504" fill="white"/>
<path d="M80.3502 19.4993H80.4843V10.6496H81.2493V19.3492H80.3502V19.4992H80.4843H80.3502V19.6492H81.5174V10.3496H80.2162V19.6492H80.3502V19.4992V19.4993ZM85.968 19.4993H84.9338V11.6051H82.6873V10.4995H88.2145V11.6051H85.968V19.4992" fill="white"/>
<path d="M85.9682 19.4997V19.3496H85.0681V11.4556H82.8217V10.65H88.0807V11.4556H85.8342V19.4996H85.9682V19.3496V19.4996H86.1023V11.7556H88.3488V10.35H82.5536V11.7555H84.8V19.6495H86.1023V19.4995H85.9682V19.4997ZM93.5436 17.5832C94.1389 18.2575 94.8674 18.5943 95.7288 18.5943C96.5902 18.5943 97.3191 18.2575 97.9135 17.5832C98.5094 16.9088 98.8079 16.0467 98.8079 14.9998C98.8079 13.9529 98.5094 13.0908 97.9135 12.4165C97.3191 11.7421 96.5902 11.4052 95.7288 11.4052C94.8674 11.4052 94.1389 11.7421 93.5436 12.4165C92.9492 13.0908 92.6508 13.9528 92.6508 14.9998C92.6508 16.0467 92.9492 16.9088 93.5436 17.5832ZM98.678 18.3366C97.8872 19.2464 96.9039 19.7006 95.7288 19.7006C94.5526 19.7006 93.5696 19.2464 92.7806 18.3366C91.9893 17.4277 91.5955 16.3152 91.5955 14.9998C91.5955 13.6843 91.9893 12.5716 92.7806 11.663C93.5697 10.753 94.5526 10.2983 95.7288 10.2983C96.8976 10.2983 97.8784 10.7554 98.6728 11.6689C99.4661 12.5823 99.8631 13.6925 99.8631 14.9998C99.8631 16.3152 99.4671 17.4277 98.678 18.3366Z" fill="white"/>
<path d="M93.544 17.5828L93.4487 17.6882C94.0661 18.3895 94.8364 18.7458 95.7293 18.744C96.6215 18.7458 97.3929 18.3895 98.0093 17.6882C98.6308 16.9862 98.9434 16.078 98.9424 14.9994C98.9433 13.9208 98.6308 13.0126 98.0093 12.3106C97.3929 11.6092 96.6215 11.253 95.7293 11.2548C94.8364 11.253 94.0661 11.6092 93.4487 12.3106C92.8287 13.0126 92.5155 13.9208 92.5171 14.9994C92.5155 16.078 92.8287 16.9862 93.4487 17.6882L93.544 17.5828L93.6394 17.4773C93.0707 16.8298 92.7863 16.0153 92.7852 14.9994C92.7863 13.9835 93.0707 13.169 93.6393 12.5215C94.2132 11.8741 94.8987 11.5566 95.7293 11.5548C96.5592 11.5566 97.2462 11.8741 97.8187 12.5215C98.3884 13.169 98.6727 13.9835 98.6738 14.9994C98.6727 16.0153 98.3884 16.8298 97.8187 17.4773C97.2462 18.1247 96.5593 18.4422 95.7293 18.4439C94.8987 18.4422 94.2132 18.1247 93.6393 17.4773L93.544 17.5828ZM98.6785 18.3362L98.5827 18.2319C97.814 19.1131 96.874 19.5485 95.7293 19.5502C94.584 19.5484 93.644 19.1131 92.8768 18.2319L92.8732 18.2272L92.8768 18.2319C92.1097 17.3477 91.7312 16.2814 91.7301 14.9994C91.7312 13.7174 92.1097 12.6511 92.8768 11.7669C93.644 10.8856 94.584 10.4498 95.7293 10.448C96.8666 10.4498 97.8044 10.8875 98.5774 11.7733C99.3472 12.6616 99.7279 13.7262 99.7295 14.9994C99.7279 16.2814 99.3483 17.3477 98.5827 18.2319L98.6785 18.3362L98.7749 18.4404C99.5875 17.5065 99.9985 16.3481 99.9976 14.9994C99.9986 13.6583 99.586 12.5023 98.7695 11.5643C97.9527 10.6225 96.9295 10.1463 95.7293 10.148C94.5228 10.1463 93.4964 10.6203 92.6847 11.5584V11.5577C91.8705 12.4922 91.4609 13.6506 91.462 14.9994C91.4609 16.3481 91.8705 17.5065 92.6847 18.441L92.6883 18.4452L92.6847 18.4404C93.4964 19.3785 94.5228 19.8514 95.7293 19.8502C96.9352 19.8514 97.9616 19.3785 98.7749 18.4404L98.6785 18.3362ZM101.314 19.4993V10.4995H102.572L106.481 17.5006H106.526L106.481 15.7663V10.4995H107.515V19.4991H106.436L102.347 12.1588H102.302L102.347 13.8937V19.4991H101.314" fill="white"/>
<path d="M101.313 19.4993H101.447V10.6496H102.497L106.406 17.6507H106.662L106.614 15.7641V10.6497H107.38V19.3492H106.51L102.42 12.0089H102.164L102.212 13.8962V19.3492H101.313V19.4992H101.447H101.313V19.6492H102.48V13.8914L102.435 12.1548L102.301 12.1589V12.3088H102.346V12.1589L102.232 12.2386L106.361 19.6492H107.649V10.3496H106.346V15.7681L106.391 17.5047L106.525 17.5007V17.3507H106.48V17.5007L106.594 17.4211L102.645 10.3496H101.179V19.6492H101.313V19.4992L101.313 19.4993ZM143.354 44.9982H145.856V26.2472H143.354L143.354 44.9982ZM165.885 33.0018L163.018 41.1313H162.932L159.956 33.0017H157.261L161.724 44.3642L159.18 50.6845H161.79L168.667 33.0017L165.885 33.0018ZM151.699 42.8685C150.879 42.8685 149.737 42.4102 149.737 41.276C149.737 39.8287 151.16 39.2739 152.388 39.2739C153.489 39.2739 154.005 39.5392 154.674 39.9015C154.48 41.6381 153.143 42.8685 151.699 42.8685ZM152.001 32.5915C150.19 32.5915 148.314 33.4844 147.538 35.4625L149.758 36.4996C150.233 35.4625 151.116 35.1244 152.044 35.1244C153.337 35.1244 154.653 35.9933 154.674 37.5372V37.73C154.221 37.4405 153.252 37.0064 152.065 37.0064C149.672 37.0064 147.235 38.4776 147.235 41.2279C147.235 43.7368 149.198 45.3533 151.396 45.3533C153.079 45.3533 154.005 44.509 154.588 43.52H154.674V44.9672H157.088V37.778C157.088 34.4495 154.868 32.5915 152.001 32.5915ZM136.542 35.2843H132.984V28.8569H136.542C138.412 28.8569 139.473 30.5894 139.473 32.0706C139.473 33.5237 138.412 35.2843 136.542 35.2843ZM136.477 26.2472H130.483V44.9982H132.984V37.8941H136.477C139.249 37.8941 141.975 35.6482 141.975 32.0706C141.975 28.4931 139.249 26.2472 136.477 26.2472ZM103.793 42.8719C102.065 42.8719 100.618 41.2531 100.618 39.0295C100.618 36.7826 102.065 35.1391 103.793 35.1391C105.499 35.1391 106.838 36.7826 106.838 39.0295C106.838 41.2531 105.499 42.8719 103.793 42.8719H103.793ZM106.665 34.0517H106.579C106.017 33.3028 104.937 32.6262 103.577 32.6262C100.726 32.6262 98.1127 35.4291 98.1127 39.0295C98.1127 42.606 100.726 45.385 103.577 45.385C104.937 45.385 106.017 44.7082 106.579 43.9354H106.665V44.8535C106.665 47.2945 105.499 48.5993 103.62 48.5993C102.087 48.5993 101.136 47.3665 100.747 46.3276L98.5662 47.3425C99.1925 49.034 100.856 51.1123 103.62 51.1123C106.557 51.1123 109.041 49.1787 109.041 44.4668V33.0128H106.665V34.0517ZM110.768 44.9982H113.274V26.2465H110.768V44.9982ZM116.967 38.8122C116.902 36.3472 118.673 35.091 119.947 35.091C120.941 35.091 121.783 35.6464 122.063 36.4446L116.967 38.8122ZM124.742 36.6858C124.267 35.2597 122.819 32.6262 119.861 32.6262C116.924 32.6262 114.483 35.2117 114.483 39.0055C114.483 42.582 116.902 45.385 120.141 45.385C122.755 45.385 124.267 43.5967 124.893 42.5578L122.949 41.1077C122.302 42.1711 121.416 42.8719 120.141 42.8719C118.867 42.8719 117.96 42.2193 117.377 40.9389L125.001 37.4106L124.742 36.6858ZM64.0032 34.5836V37.2899H69.7911C69.6183 38.8122 69.1647 39.9237 68.4735 40.697C67.6315 41.6397 66.3141 42.6786 64.0031 42.6786C60.4395 42.6786 57.6537 39.4648 57.6537 35.4776C57.6537 31.4906 60.4395 28.2763 64.0032 28.2763C65.9254 28.2763 67.3288 29.1223 68.3656 30.2097L70.0718 28.3009C68.6249 26.754 66.7026 25.57 64.0032 25.57C59.1221 25.57 55.0187 30.0164 55.0187 35.4776C55.0187 40.9389 59.1221 45.385 64.0032 45.385C66.6382 45.385 68.6249 44.4188 70.1797 42.606C71.7779 40.8177 72.2749 38.3048 72.2749 36.2752C72.2749 35.6464 72.2319 35.067 72.145 34.5836H64.0032ZM78.8552 42.8719C77.1271 42.8719 75.6368 41.277 75.6368 39.0055C75.6368 36.7098 77.1271 35.1391 78.8552 35.1391C80.5826 35.1391 82.0729 36.7098 82.0729 39.0055C82.0729 41.2771 80.5826 42.8719 78.8552 42.8719ZM78.8552 32.6262C75.7016 32.6262 73.1315 35.3083 73.1315 39.0055C73.1315 42.6786 75.7016 45.385 78.8552 45.385C82.0081 45.385 84.5782 42.6786 84.5782 39.0055C84.5782 35.3083 82.0081 32.6262 78.8552 32.6262ZM91.3401 42.8719C89.6127 42.8719 88.1222 41.277 88.1222 39.0055C88.1222 36.7098 89.6127 35.1391 91.3402 35.1391C93.0677 35.1391 94.558 36.7098 94.558 39.0055C94.558 41.2771 93.0677 42.8719 91.3402 42.8719H91.3401ZM91.3401 32.6262C88.1867 32.6262 85.6171 35.3083 85.6171 39.0055C85.6171 42.6786 88.1867 45.385 91.3402 45.385C94.4932 45.385 97.0633 42.6786 97.0633 39.0055C97.0633 35.3083 94.4932 32.6262 91.3402 32.6262H91.3401Z" fill="white"/>
<path d="M14.0874 11.4166C13.6376 11.8707 13.369 12.6282 13.369 13.6337V13.4064V46.5868V46.3682C13.369 47.2968 13.5994 48.0139 13.9894 48.4758L14.089 48.5824V48.5829C14.4047 48.9017 14.8096 49.0709 15.2736 49.0704C15.727 49.0704 16.2371 48.9087 16.7754 48.5672L36.234 36.1967L42.9179 31.9471C43.7668 31.4075 44.2433 30.7114 44.323 30.0024V29.9995C44.2433 29.2889 43.7668 28.5933 42.918 28.0537L36.2335 23.8046L16.7755 11.4341C16.236 11.092 15.7255 10.9297 15.2709 10.9297C14.8075 10.9297 14.4032 11.0984 14.0876 11.4166H14.0874Z" fill="#00C1FF"/>
<path d="M14.0891 48.5825L13.9894 48.4759C13.5994 48.0141 13.369 47.2969 13.369 46.3683V46.5869V13.4148V13.6339C13.369 12.6284 13.6376 11.8709 14.0874 11.4167L30.6968 30.0002L14.0891 48.5825Z" fill="url(#paint0_linear_2269_20004)"/>
<path d="M36.234 36.1968L30.6968 30.0002L36.2336 23.8047L42.918 28.0537C43.7668 28.5934 44.2434 29.2889 44.323 29.9996V30.0025C44.2434 30.7115 43.7668 31.4076 42.918 31.9471L36.2341 36.1967" fill="url(#paint1_linear_2269_20004)"/>
<path d="M15.2736 49.0703C14.8097 49.0708 14.4048 48.9014 14.0892 48.5827V48.5823L30.6969 30L36.2341 36.1965L16.7755 48.567C16.2371 48.9086 15.727 49.0703 15.2736 49.0703Z" fill="url(#paint2_linear_2269_20004)"/>
<path d="M30.6965 30.0005L14.0871 11.417C14.4028 11.0988 14.8071 10.9301 15.2705 10.9301C15.7251 10.9301 16.2356 11.0923 16.775 11.4345L36.2332 23.805L30.6964 30.0005" fill="url(#paint3_linear_2269_20004)"/>
<path d="M15.2747 49.291C14.8108 49.291 14.4054 49.1217 14.0896 48.803L14.0891 48.8035C14.0878 48.802 14.0864 48.8007 14.0849 48.7995L13.9986 48.7051C13.9958 48.7021 13.9933 48.6987 13.9901 48.6952L14.0897 48.5838C14.4054 48.9025 14.8102 49.0719 15.2743 49.0713C15.7276 49.0713 16.2377 48.9096 16.776 48.568L36.2346 36.1976L36.3593 36.3371L36.2331 36.4173L16.776 48.7871C16.2854 49.0983 15.8187 49.2605 15.3972 49.2876C15.3564 49.2898 15.3155 49.2909 15.2747 49.2909" fill="url(#paint4_linear_2269_20004)"/>
<path d="M13.9894 48.6943C13.5994 48.2326 13.369 47.516 13.369 46.5868V46.3683C13.369 47.2968 13.5994 48.014 13.9894 48.4758L14.089 48.5824L13.9894 48.6943Z" fill="url(#paint5_linear_2269_20004)"/>
<path d="M36.3581 36.3359L36.2334 36.1963L42.9173 31.9467C43.7662 31.4073 44.2428 30.7111 44.3224 30.0021C44.3224 30.2623 44.2705 30.5224 44.1674 30.7756C43.9595 31.2859 43.5427 31.7681 42.9174 32.1659L36.3581 36.3359" fill="url(#paint6_linear_2269_20004)"/>
<path d="M44.323 30C44.2433 29.2893 43.7667 28.5938 42.9179 28.0541L36.2334 23.8051L36.3581 23.6655H36.3586L42.9179 27.8356C43.8538 28.4309 44.3224 29.2153 44.323 30Z" fill="url(#paint7_linear_2269_20004)"/>
<path d="M13.369 13.6338V13.4046C13.369 13.3219 13.371 13.2411 13.3748 13.1627V13.1591C13.3748 13.158 13.3748 13.1569 13.3752 13.1556V13.1468C13.4155 12.347 13.6376 11.7231 13.9894 11.3065L14.0874 11.4166C13.6376 11.8708 13.369 12.6283 13.369 13.6338Z" fill="url(#paint8_linear_2269_20004)"/>
<path d="M36.233 23.8047L16.775 11.4341C16.2355 11.092 15.7251 10.9297 15.2705 10.9297C14.807 10.9297 14.4027 11.0985 14.087 11.4166L13.989 11.3065C14.0196 11.2702 14.0515 11.2353 14.0844 11.2017C14.0854 11.2005 14.087 11.1992 14.0881 11.1981C14.4013 10.8823 14.8013 10.7136 15.2606 10.7106H15.2705C15.7251 10.7106 16.2355 10.8729 16.775 11.2152L36.3582 23.6647L36.3577 23.6651L36.233 23.8047Z" fill="url(#paint9_linear_2269_20004)"/>
<defs>
<linearGradient id="paint0_linear_2269_20004" x1="23.9834" y1="13.0642" x2="8.08872" y2="27.3159" gradientUnits="userSpaceOnUse">
<stop stop-color="#00A0FF"/>
<stop offset="0.00657" stop-color="#00A1FF"/>
<stop offset="0.2601" stop-color="#00BEFF"/>
<stop offset="0.5122" stop-color="#00D2FF"/>
<stop offset="0.7604" stop-color="#00DFFF"/>
<stop offset="1" stop-color="#00E3FF"/>
</linearGradient>
<linearGradient id="paint1_linear_2269_20004" x1="45.3573" y1="29.8931" x2="12.9196" y2="29.8931" gradientUnits="userSpaceOnUse">
<stop stop-color="#FFE000"/>
<stop offset="0.4087" stop-color="#FFBD00"/>
<stop offset="0.7754" stop-color="#FFA500"/>
<stop offset="1" stop-color="#FF9C00"/>
</linearGradient>
<linearGradient id="paint2_linear_2269_20004" x1="33.2943" y1="35.8914" x2="6.38136" y2="59.8462" gradientUnits="userSpaceOnUse">
<stop stop-color="#FF3A44"/>
<stop offset="1" stop-color="#C31162"/>
</linearGradient>
<linearGradient id="paint3_linear_2269_20004" x1="9.80635" y1="8.66189" x2="21.8029" y2="19.3563" gradientUnits="userSpaceOnUse">
<stop stop-color="#32A071"/>
<stop offset="0.0685" stop-color="#2DA771"/>
<stop offset="0.4762" stop-color="#15CF74"/>
<stop offset="0.8009" stop-color="#06E775"/>
<stop offset="1" stop-color="#00F076"/>
</linearGradient>
<linearGradient id="paint4_linear_2269_20004" x1="33.2828" y1="40.1907" x2="11.7121" y2="59.5319" gradientUnits="userSpaceOnUse">
<stop stop-color="#CC2E36"/>
<stop offset="1" stop-color="#9C0E4E"/>
</linearGradient>
<linearGradient id="paint5_linear_2269_20004" x1="15.5816" y1="13.064" x2="1.57861" y2="25.6198" gradientUnits="userSpaceOnUse">
<stop stop-color="#008DE0"/>
<stop offset="0.00657" stop-color="#008DE0"/>
<stop offset="0.2601" stop-color="#00A7E0"/>
<stop offset="0.5122" stop-color="#00B8E0"/>
<stop offset="0.7604" stop-color="#00C4E0"/>
<stop offset="1" stop-color="#00C7E0"/>
</linearGradient>
<linearGradient id="paint6_linear_2269_20004" x1="45.3567" y1="30.0007" x2="12.9189" y2="30.0007" gradientUnits="userSpaceOnUse">
<stop stop-color="#E0C500"/>
<stop offset="0.4087" stop-color="#E0A600"/>
<stop offset="0.7754" stop-color="#E09100"/>
<stop offset="1" stop-color="#E08900"/>
</linearGradient>
<linearGradient id="paint7_linear_2269_20004" x1="45.3572" y1="30.0015" x2="12.9196" y2="30.0015" gradientUnits="userSpaceOnUse">
<stop stop-color="#FFE840"/>
<stop offset="0.4087" stop-color="#FFCE40"/>
<stop offset="0.7754" stop-color="#FFBC40"/>
<stop offset="1" stop-color="#FFB540"/>
</linearGradient>
<linearGradient id="paint8_linear_2269_20004" x1="15.5679" y1="13.0896" x2="2.1461" y2="24.6028" gradientUnits="userSpaceOnUse">
<stop stop-color="#40B8FF"/>
<stop offset="0.00657" stop-color="#40B9FF"/>
<stop offset="0.2601" stop-color="#40CEFF"/>
<stop offset="0.5122" stop-color="#40DDFF"/>
<stop offset="0.7604" stop-color="#40E7FF"/>
<stop offset="1" stop-color="#40EAFF"/>
</linearGradient>
<linearGradient id="paint9_linear_2269_20004" x1="9.78207" y1="12.5916" x2="19.4144" y2="21.2284" gradientUnits="userSpaceOnUse">
<stop stop-color="#65B895"/>
<stop offset="0.0685" stop-color="#62BD95"/>
<stop offset="0.4762" stop-color="#50DB97"/>
<stop offset="0.8009" stop-color="#44ED98"/>
<stop offset="1" stop-color="#40F498"/>
</linearGradient>
</defs>
</svg>
