<svg width="41" height="48" viewBox="0 0 41 48" fill="none" xmlns="http://www.w3.org/2000/svg">
<path d="M13.1977 0.459244C14.2234 1.04867 15.0411 1.84863 15.8761 2.67525C15.9794 2.76938 16.0827 2.86351 16.1891 2.9605C17.2907 3.9857 18.1534 5.24198 19.0449 6.44717C19.1399 6.5748 19.1399 6.5748 19.2369 6.70502C20.6597 8.62442 21.9514 10.6415 23.27 12.6331C23.5473 12.2172 23.7396 11.8094 23.9354 11.3515C25.1059 8.61784 26.4404 5.95034 28.2496 3.58051C28.3519 3.4458 28.3519 3.4458 28.4564 3.30837C29.4821 1.97952 30.6744 0.633376 32.3237 0.110342C33.6873 -0.039786 34.6695 0.0902242 35.7578 0.914822C39.4796 4.21068 39.8338 11.1371 40.1178 15.699C40.6147 25.3282 40.3191 38.2141 33.8327 45.9769C32.9124 46.9756 31.8067 47.6793 30.4429 47.8546C28.572 47.9155 27.3764 47.3242 25.9861 46.1278C25.8743 46.036 25.7624 45.9442 25.6472 45.8496C24.7334 45.0768 24.0058 44.2013 23.27 43.2611C23.1382 43.0973 23.0061 42.9337 22.8739 42.7702C21.8289 41.4708 20.8773 40.1201 19.9503 38.7348C19.8486 38.5829 19.7469 38.4309 19.642 38.2744C18.9381 37.2221 18.2363 36.1684 17.536 35.1138C17.5043 35.1916 17.4727 35.2694 17.4401 35.3495C15.6649 39.6789 13.3251 45.3497 8.93495 47.6365C8.00576 47.9462 6.89637 47.9561 6.00192 47.5328C5.49241 47.2328 5.10173 46.8743 4.70988 46.4295C4.59045 46.2942 4.47102 46.1588 4.34797 46.0193C0.613537 41.5094 0.694467 33.5832 0.730013 28.1263C0.730715 27.9324 0.731417 27.7386 0.73214 27.5388C0.744555 24.6061 0.819613 21.7247 1.23928 18.8191C1.26958 18.6025 1.29986 18.3859 1.33013 18.1694C2.09217 12.8008 3.09949 6.41556 6.82241 2.22262C6.9117 2.11759 7.00098 2.01257 7.09297 1.90436C8.69288 0.149623 10.9809 -0.535887 13.1977 0.459244ZM28.7211 10.37C26.5829 12.93 26.5829 12.93 25.5576 15.8781C25.8421 16.7222 26.6483 17.2958 27.3631 17.7818C27.794 17.9421 27.794 17.9421 28.2496 17.8761C29.6142 17.0801 30.1095 15.198 30.5095 13.7647C30.6171 13.3383 30.7196 12.9116 30.8148 12.4822C30.9026 15.6644 30.9429 19.5774 29.004 22.2892C28.4683 22.7994 28.0728 23.0098 27.3348 23.1002C25.7507 22.9494 24.5477 21.8562 23.54 20.6991C23.3126 20.4223 23.0877 20.1435 22.8651 19.8628C22.5055 19.4099 22.1346 18.9683 21.7611 18.5267C21.1462 17.7905 20.5644 17.0358 19.9933 16.2654C18.5976 14.3879 17.1699 12.5357 15.5743 10.8226C15.4715 10.7115 15.3686 10.6005 15.2625 10.4861C14.4121 9.59909 13.4921 8.78725 12.2264 8.66317C11.2104 8.74643 10.5483 9.15514 9.84032 9.87962C9.0396 10.8388 8.53037 11.95 8.02958 13.0857C7.98795 13.1796 7.94633 13.2735 7.90344 13.3703C4.85523 20.4203 3.57166 31.6175 6.243 38.911C6.60416 39.6971 6.98542 40.2418 7.72779 40.6962C8.21109 40.8143 8.48125 40.7687 8.92847 40.5554C11.7759 38.8266 14.4748 35.1169 15.4235 31.9454C14.4521 30.7609 14.4521 30.7609 13.16 29.984C12.7634 29.9224 12.7634 29.9224 12.4055 30.1348C10.8657 31.5434 10.4248 33.7538 9.99122 35.7173C9.89817 32.3988 9.90586 28.0215 12.1038 25.3068C12.7758 24.8486 13.4175 24.724 14.2163 24.8541C16.5637 25.5639 18.4633 28.4014 19.8741 30.2847C21.3692 32.2781 22.8789 34.2577 24.4772 36.1699C24.5976 36.3156 24.718 36.4613 24.842 36.6113C25.7609 37.6829 26.8747 38.7533 28.2496 39.1874C29.1496 39.2344 29.8233 39.02 30.513 38.4331C33.6114 35.6013 34.4474 30.3094 35.0681 26.3629C35.0915 26.2147 35.1149 26.0664 35.139 25.9137C35.5262 23.3044 35.6968 20.7107 35.6911 18.074C35.6906 17.6123 35.6942 17.1508 35.698 16.6891C35.7197 11.7969 35.7197 11.7969 33.6818 7.50331C31.7864 6.23985 29.7578 9.0583 28.7211 10.37Z" fill="#FE163F"/>
<path d="M13.1977 0.459244C14.2234 1.04867 15.041 1.84863 15.8761 2.67525C15.9794 2.76938 16.0827 2.86351 16.1891 2.9605C18.5233 5.13296 20.285 8.11411 22.0157 10.7754C22.138 10.9626 22.2603 11.1497 22.3826 11.3368C23.0141 12.3037 23.6398 13.2741 24.2568 14.2503C24.7656 15.045 25.2922 15.7585 25.9861 16.405C26.0927 16.5071 26.1993 16.6093 26.3091 16.7145C26.4854 16.8787 26.4854 16.8787 26.6652 17.0463C26.7756 17.1497 26.8861 17.2532 27 17.3598C27.3909 17.6463 27.6142 17.748 28.0987 17.7629C29.0606 17.3652 29.392 16.4603 29.775 15.5553C30.223 14.3645 30.5128 13.113 30.8148 11.8787C30.8646 11.8787 30.9144 11.8787 30.9657 11.8787C31.1687 20.1741 31.1687 20.1741 28.9215 22.5344C28.413 22.9774 28.003 23.1693 27.3347 23.2511C25.6742 23.0929 24.4337 21.8956 23.3791 20.6891C23.1531 20.414 22.9298 20.1367 22.7089 19.8575C22.3515 19.4059 21.9821 18.9664 21.6102 18.5267C20.9953 17.7905 20.4135 17.0358 19.8424 16.2654C18.4465 14.3877 17.0173 12.5376 15.4234 10.8226C15.3316 10.7226 15.2398 10.6227 15.1452 10.5197C14.3388 9.67297 13.4235 8.9314 12.2264 8.81405C11.2652 8.89282 10.587 9.26556 9.91577 9.95505C5.09791 15.8806 4.73945 27.1463 5.42663 34.3311C5.77557 37.5722 5.77557 37.5722 7.34111 40.3379C7.84781 40.6097 8.06318 40.6549 8.63316 40.5453C11.4095 39.2035 13.2975 35.9669 14.6984 33.3569C14.9289 32.9284 15.1691 32.5108 15.4234 32.0962C16.2722 32.8653 17.1715 33.8697 17.536 34.9629C17.4382 35.3193 17.3292 35.6473 17.1965 35.9907C17.1562 36.0956 17.116 36.2005 17.0745 36.3085C15.4782 40.3341 12.9431 45.5486 8.93495 47.6365C8.00576 47.9462 6.89637 47.9561 6.00192 47.5328C5.4924 47.2328 5.10173 46.8743 4.70988 46.4295C4.59045 46.2942 4.47101 46.1588 4.34796 46.0193C0.613537 41.5094 0.694467 33.5832 0.730013 28.1263C0.730715 27.9324 0.731417 27.7386 0.73214 27.5388C0.744555 24.6061 0.819613 21.7247 1.23928 18.8191C1.26958 18.6025 1.29986 18.3859 1.33013 18.1694C2.09217 12.8008 3.09949 6.41556 6.82241 2.22262C6.91169 2.11759 7.00098 2.01257 7.09296 1.90436C8.69287 0.149623 10.9809 -0.535887 13.1977 0.459244Z" fill="#004376"/>
</svg>
