<svg width="46" height="46" viewBox="0 0 46 46" fill="none" xmlns="http://www.w3.org/2000/svg">
<path d="M36.4167 17.2499C36.4167 20.0291 35.5925 22.5783 34.1742 24.7058C32.1042 27.7724 28.8267 29.9383 25.0125 30.4941C24.3609 30.6091 23.69 30.6666 23 30.6666C22.31 30.6666 21.6392 30.6091 20.9875 30.4941C17.1734 29.9383 13.8959 27.7724 11.8259 24.7058C10.4075 22.5783 9.58337 20.0291 9.58337 17.2499C9.58337 9.83242 15.5825 3.83325 23 3.83325C30.4175 3.83325 36.4167 9.83242 36.4167 17.2499Z" stroke="#F4F6FF" stroke-width="3" stroke-linecap="round" stroke-linejoin="round"/>
<path d="M40.7312 35.4007L37.5687 36.1482C36.8595 36.3207 36.3037 36.8574 36.1504 37.5665L35.4795 40.384C35.1154 41.9174 33.1604 42.3774 32.1445 41.1699L23.002 30.6665L13.8595 41.189C12.8437 42.3965 10.8887 41.9365 10.5245 40.4032L9.85369 37.5857C9.68119 36.8765 9.12536 36.3207 8.43536 36.1674L5.27286 35.4199C3.81619 35.0749 3.29869 33.254 4.35286 32.1998L11.8279 24.7249C13.8979 27.7915 17.1754 29.9574 20.9895 30.5132C21.6412 30.6282 22.312 30.6857 23.002 30.6857C23.692 30.6857 24.3629 30.6282 25.0145 30.5132C28.8287 29.9574 32.1062 27.7915 34.1762 24.7249L41.6512 32.1998C42.7054 33.2348 42.1879 35.0557 40.7312 35.4007Z" stroke="#F4F6FF" stroke-width="3" stroke-linecap="round" stroke-linejoin="round"/>
<path d="M24.1153 11.4617L25.2462 13.7234C25.3995 14.0301 25.802 14.3367 26.1661 14.3942L28.217 14.7392C29.5203 14.9501 29.827 15.9084 28.8878 16.8476L27.297 18.4384C27.0286 18.7067 26.8753 19.2242 26.9711 19.6076L27.4312 21.5817C27.7953 23.1342 26.9712 23.7475 25.5912 22.9234L23.6745 21.7926C23.3295 21.5817 22.7545 21.5817 22.4095 21.7926L20.4928 22.9234C19.1128 23.7284 18.2886 23.1342 18.6528 21.5817L19.1128 19.6076C19.1895 19.2434 19.0553 18.7067 18.787 18.4384L17.1962 16.8476C16.257 15.9084 16.5637 14.9692 17.867 14.7392L19.9178 14.3942C20.2628 14.3367 20.6653 14.0301 20.8186 13.7234L21.9495 11.4617C22.5053 10.2351 23.502 10.2351 24.1153 11.4617Z" stroke="#F4F6FF" stroke-width="3" stroke-linecap="round" stroke-linejoin="round"/>
</svg>
