<svg width="46" height="46" viewBox="0 0 46 46" fill="none" xmlns="http://www.w3.org/2000/svg">
<path d="M18.2083 26.3546C18.2083 28.2138 19.6458 29.7088 21.4091 29.7088H25.0124C26.5457 29.7088 27.7916 28.4054 27.7916 26.7763C27.7916 25.0321 27.0249 24.3996 25.8941 23.9971L20.1249 21.9846C18.9941 21.5821 18.2274 20.9688 18.2274 19.2054C18.2274 17.5954 19.4732 16.2729 21.0066 16.2729H24.6099C26.3732 16.2729 27.8108 17.7679 27.8108 19.6271" stroke="#F4F6FF" stroke-width="3" stroke-linecap="round" stroke-linejoin="round"/>
<path d="M23 14.3748V31.6248" stroke="#F4F6FF" stroke-width="3" stroke-linecap="round" stroke-linejoin="round"/>
<path d="M42.1666 22.9999C42.1666 33.5799 33.58 42.1666 23 42.1666C12.42 42.1666 3.83331 33.5799 3.83331 22.9999C3.83331 12.4199 12.42 3.83325 23 3.83325" stroke="#F4F6FF" stroke-width="3" stroke-linecap="round" stroke-linejoin="round"/>
<path d="M42.1666 11.4999V3.83325H34.4999" stroke="#F4F6FF" stroke-width="3" stroke-linecap="round" stroke-linejoin="round"/>
<path d="M32.5834 13.4166L42.1667 3.83325" stroke="#F4F6FF" stroke-width="3" stroke-linecap="round" stroke-linejoin="round"/>
</svg>
