<svg width="158" height="53" viewBox="0 0 158 53" fill="none" xmlns="http://www.w3.org/2000/svg">
<path d="M151.511 0H5.82736C2.62235 0 0 2.93406 0 6.52017V45.6409C0 49.227 2.62229 52.1611 5.82736 52.1611H151.511C154.716 52.1611 157.338 49.227 157.338 45.641V6.52017C157.338 2.93406 154.716 0 151.511 0Z" fill="black"/>
<path fill-rule="evenodd" clip-rule="evenodd" d="M5.82736 0H151.511C154.716 0 157.338 2.93406 157.338 6.52017V45.641C157.338 49.227 154.716 52.1611 151.511 52.1611H5.82736C2.62229 52.1611 0 49.227 0 45.6409V6.52017C0 2.93406 2.62235 0 5.82736 0Z" fill="black"/>
<path d="M150.85 51.3982H6.52083C3.37989 51.3982 0.809967 48.5509 0.809967 45.0709V7.10669C0.809967 3.62661 3.37984 0.779297 6.52083 0.779297H150.85C153.991 0.779297 156.56 3.62661 156.56 7.10669V45.0708C156.56 48.5509 153.991 51.3982 150.85 51.3982Z" fill="black"/>
<path d="M55.2653 13.3579C55.2653 14.4504 54.9761 15.3204 54.397 15.9695C53.7391 16.7412 52.8818 17.1273 51.8279 17.1273C50.8186 17.1273 49.9604 16.7361 49.2548 15.9526C48.5478 15.1697 48.195 14.1988 48.195 13.0405C48.195 11.8816 48.5478 10.9113 49.2548 10.1278C49.9604 9.34491 50.8186 8.95312 51.8279 8.95312C52.3287 8.95312 52.8082 9.06272 53.2634 9.28126C53.7186 9.50033 54.0838 9.79113 54.357 10.1553L53.7423 10.8435C53.2793 10.2246 52.642 9.91538 51.8279 9.91538C51.0918 9.91538 50.4553 10.2048 49.9182 10.7839C49.3809 11.3637 49.1123 12.1155 49.1123 13.0405C49.1123 13.9656 49.3809 14.7173 49.9182 15.2971C50.4553 15.8763 51.0918 16.1656 51.8279 16.1656C52.6088 16.1656 53.2598 15.8747 53.781 15.292C54.1193 14.9124 54.315 14.3848 54.3673 13.7073H51.8278V12.7674H55.2165C55.2492 12.9718 55.2652 13.1679 55.2652 13.3579" fill="white"/>
<path d="M55.2645 13.3574H55.1479C55.147 14.4251 54.8683 15.2543 54.3137 15.8768L54.3125 15.8779L54.312 15.8789C53.6751 16.624 52.8564 16.9949 51.8271 16.9965C50.8447 16.9949 50.0225 16.62 49.3359 15.86C48.6508 15.0985 48.3121 14.1688 48.3107 13.04C48.3121 11.9108 48.6508 10.9816 49.3359 10.2206C50.0225 9.46008 50.8447 9.08465 51.8271 9.08306C52.3129 9.08306 52.7755 9.18914 53.2166 9.40048C53.6582 9.61345 54.007 9.89253 54.2669 10.239L54.3561 10.1549L54.2738 10.0627L53.6591 10.7513L53.7415 10.843L53.8312 10.7596C53.3467 10.11 52.6667 9.78259 51.8271 9.78452C51.0637 9.78347 50.3922 10.0887 49.8367 10.6898C49.2759 11.2929 48.9941 12.087 48.995 13.04C48.9941 13.9931 49.2759 14.7872 49.8367 15.3903C50.3922 15.9914 51.0637 16.2966 51.8271 16.2955C52.6338 16.2971 53.3213 15.9909 53.8626 15.3837C54.2241 14.9782 54.429 14.4165 54.4827 13.718L54.4936 13.5764H51.9436V12.8974H55.2157V12.767L55.1009 12.7899C55.1328 12.9876 55.1479 13.1755 55.1479 13.3574H55.381C55.381 13.1592 55.3645 12.9555 55.3304 12.7437L55.3131 12.6366H51.7106V13.8372H54.3666V13.7068L54.2505 13.6956C54.1991 14.3518 54.0124 14.8459 53.6978 15.1994C53.1971 15.7577 52.5824 16.0332 51.8271 16.0347C51.1183 16.0337 50.5169 15.7606 49.9984 15.2029C49.4849 14.6471 49.2294 13.9376 49.2281 13.04C49.2294 12.1425 49.4849 11.4329 49.9984 10.8772C50.5169 10.3194 51.1183 10.0464 51.8271 10.0453C52.6152 10.0474 53.2103 10.3388 53.6524 10.9271L53.7343 11.0361L54.4386 10.2471L54.5142 10.1626L54.4454 10.0713C54.159 9.68934 53.7775 9.38618 53.3086 9.16113C52.8388 8.93538 52.343 8.82227 51.8271 8.82227C50.791 8.82127 49.8969 9.22876 49.1716 10.0352C48.4437 10.84 48.0768 11.8517 48.0778 13.04C48.0768 14.2279 48.4437 15.2401 49.1721 16.0454C49.8969 16.8513 50.791 17.2583 51.8271 17.2573C52.9061 17.2583 53.8012 16.8573 54.4805 16.0591L54.3962 15.969L54.4786 16.0612C55.0823 15.3863 55.3818 14.4745 55.381 13.3574H55.2644H55.2645ZM60.6365 10.0892H57.4519V12.57H60.3238V13.5101H57.4519V15.9909H60.6365V16.9521H56.5542V9.12796H60.6365V10.0892Z" fill="white"/>
<path d="M60.636 10.0892V9.95876H57.335V12.7004H60.2068V13.3794L57.3349 13.3797V16.1213H60.5195V16.8217H56.6703V9.25836H60.5195V10.0892H60.636V9.95876V10.0892H60.7526V8.99756H56.4372V17.0825H60.7526V15.8605H57.568V13.6405H60.4399V12.4396H57.568V10.2196H60.7526V10.0892H60.636ZM64.4252 16.9522H63.5261V10.0891H61.5729V9.1279H66.3783V10.0891H64.4252V16.9521" fill="white"/>
<path d="M64.4253 16.9522V16.8217H63.6427V9.95876H61.6896V9.25841H66.2618V9.95876H64.3088V16.9521H64.4253V16.8217V16.9521H64.5419V10.2196H66.4949V8.99756H61.4565V10.2195H63.4096V17.0825H64.5419V16.9521H64.4253V16.9522ZM69.8552 16.9522V9.1279H70.7535V16.9521H69.8552" fill="white"/>
<path d="M69.8559 16.9522H69.9725V9.25836H70.6376V16.8217H69.8559V16.9521H69.9725H69.8559V17.0825H70.8707V8.99756H69.7394V17.0825H69.8559V16.9521V16.9522ZM74.7399 16.9522H73.8408V10.0891H71.8878V9.1279H76.693V10.0891H74.7399V16.9521" fill="white"/>
<path d="M74.7406 16.9526V16.8222H73.958V9.95922H72.005V9.25887H76.5771V9.95922H74.6241V16.9526H74.7406V16.8222V16.9526H74.8572V10.22H76.8102V8.99802H71.7719V10.22H73.7249V17.0829H74.8572V16.9525H74.7406V16.9526ZM81.3265 15.2865C81.844 15.8727 82.4774 16.1655 83.2263 16.1655C83.9752 16.1655 84.6089 15.8727 85.1256 15.2865C85.6437 14.7002 85.9033 13.9507 85.9033 13.0405C85.9033 12.1303 85.6437 11.3809 85.1256 10.7946C84.6089 10.2083 83.9752 9.91538 83.2263 9.91538C82.4774 9.91538 81.844 10.2083 81.3265 10.7946C80.8097 11.3809 80.5503 12.1303 80.5503 13.0405C80.5503 13.9507 80.8097 14.7002 81.3265 15.2865ZM85.7903 15.9414C85.1028 16.7324 84.2479 17.1273 83.2263 17.1273C82.2037 17.1273 81.3491 16.7324 80.6632 15.9414C79.9752 15.1513 79.6329 14.1841 79.6329 13.0405C79.6329 11.8969 79.9752 10.9295 80.6632 10.1395C81.3492 9.34836 82.2037 8.95312 83.2263 8.95312C84.2425 8.95312 85.0951 9.35047 85.7858 10.1446C86.4755 10.9388 86.8206 11.904 86.8206 13.0405C86.8206 14.1841 86.4763 15.1513 85.7903 15.9414Z" fill="white"/>
<path d="M81.3267 15.286L81.2438 15.3777C81.7806 15.9874 82.4503 16.2971 83.2265 16.2955C84.0022 16.2971 84.6728 15.9874 85.2087 15.3777C85.749 14.7673 86.0208 13.9778 86.02 13.04C86.0208 12.1023 85.749 11.3127 85.2087 10.7024C84.6728 10.0927 84.0022 9.783 83.2265 9.78452C82.4503 9.783 81.7806 10.0927 81.2438 10.7024C80.7048 11.3127 80.4325 12.1023 80.4339 13.04C80.4325 13.9777 80.7048 14.7673 81.2438 15.3777L81.3267 15.286L81.4096 15.1943C80.9151 14.6314 80.6679 13.9233 80.667 13.04C80.6679 12.1568 80.9151 11.4488 81.4095 10.8858C81.9084 10.323 82.5044 10.0469 83.2265 10.0454C83.948 10.0469 84.5453 10.323 85.043 10.8858C85.5383 11.4488 85.7855 12.1568 85.7864 13.04C85.7855 13.9232 85.5383 14.6314 85.043 15.1943C84.5453 15.7571 83.9481 16.0332 83.2265 16.0347C82.5044 16.0332 81.9084 15.7571 81.4095 15.1943L81.3267 15.286ZM85.7905 15.941L85.7072 15.8504C85.0389 16.6165 84.2217 16.995 83.2265 16.9965C82.2308 16.9949 81.4136 16.6165 80.7466 15.8504L80.7434 15.8463L80.7466 15.8504C80.0797 15.0816 79.7506 14.1546 79.7497 13.04C79.7506 11.9255 80.0797 10.9984 80.7466 10.2298C81.4136 9.4636 82.2308 9.08465 83.2265 9.08313C84.2153 9.08465 85.0306 9.46518 85.7026 10.2353C86.3718 11.0076 86.7028 11.9331 86.7043 13.04C86.7028 14.1546 86.3728 15.0816 85.7072 15.8504L85.7905 15.941L85.8743 16.0316C86.5808 15.2197 86.9381 14.2126 86.9374 13.04C86.9382 11.8741 86.5794 10.8691 85.8697 10.0536C85.1595 9.23486 84.2699 8.82086 83.2265 8.82227C82.1776 8.82086 81.2853 9.23292 80.5796 10.0485V10.0479C79.8717 10.8604 79.5156 11.8674 79.5166 13.04C79.5156 14.2126 79.8717 15.2197 80.5796 16.0321L80.5827 16.0358L80.5796 16.0316C81.2853 16.8471 82.1776 17.2583 83.2265 17.2573C84.2749 17.2583 85.1672 16.8471 85.8743 16.0316L85.7905 15.941ZM88.0818 16.9522V9.1279H89.1754L92.5739 15.2146H92.6126L92.5739 13.7067V9.1279H93.4731V16.9521H92.5352L88.9796 10.5704H88.9409L88.9796 12.0788V16.9521H88.0818" fill="white"/>
<path d="M88.0812 16.9522H88.1978V9.25836H89.1101L92.5086 15.345H92.7317L92.6898 13.7049V9.25841H93.3559V16.8217H92.5993L89.0437 10.4401H88.8206L88.8624 12.0809V16.8217H88.0813V16.9521H88.1978H88.0813V17.0825H89.0955V12.0768L89.0569 10.567L88.9403 10.5705V10.7009H88.979V10.5705L88.8802 10.6398L92.47 17.0825H93.589V8.99756H92.4568V13.7083L92.4955 15.2181L92.612 15.2146V15.0842H92.5733V15.2146L92.6721 15.1454L89.2393 8.99756H87.9647V17.0825H88.0813V16.9521L88.0812 16.9522ZM124.631 39.1206H126.806V22.8187H124.631L124.631 39.1206ZM144.219 28.691L141.726 35.7587H141.652L139.064 28.691H136.722L140.601 38.5694L138.389 44.0642H140.659L146.637 28.691L144.219 28.691ZM131.886 37.269C131.173 37.269 130.18 36.8706 130.18 35.8845C130.18 34.6263 131.418 34.1439 132.485 34.1439C133.442 34.1439 133.891 34.3746 134.472 34.6895C134.303 36.1993 133.141 37.269 131.886 37.269ZM132.148 28.3344C130.574 28.3344 128.943 29.1106 128.269 30.8304L130.199 31.732C130.611 30.8304 131.379 30.5364 132.186 30.5364C133.31 30.5364 134.454 31.2919 134.472 32.6341V32.8017C134.078 32.55 133.236 32.1726 132.204 32.1726C130.124 32.1726 128.005 33.4516 128.005 35.8427C128.005 38.0239 129.711 39.4293 131.623 39.4293C133.085 39.4293 133.891 38.6952 134.398 37.8355H134.472V39.0936H136.571V32.8434C136.571 29.9497 134.641 28.3344 132.148 28.3344ZM118.708 30.6754H115.615V25.0876H118.708C120.334 25.0876 121.257 26.5938 121.257 27.8815C121.257 29.1448 120.334 30.6754 118.708 30.6754ZM118.652 22.8187H113.441V39.1206H115.615V32.9443H118.652C121.062 32.9443 123.432 30.9918 123.432 27.8815C123.432 24.7712 121.062 22.8187 118.652 22.8187ZM90.2369 37.272C88.7345 37.272 87.4766 35.8646 87.4766 33.9315C87.4766 31.9781 88.7345 30.5492 90.2369 30.5492C91.7202 30.5492 92.8843 31.978 92.8843 33.9315C92.8843 35.8646 91.7202 37.272 90.2369 37.272H90.2369ZM92.734 29.6038H92.6589C92.1709 28.9527 91.2316 28.3645 90.0489 28.3645C87.5704 28.3645 85.2987 30.8013 85.2987 33.9315C85.2987 37.0408 87.5704 39.4568 90.0489 39.4568C91.2316 39.4568 92.1709 38.8684 92.6589 38.1965H92.734V38.9948C92.734 41.1169 91.7202 42.2513 90.0867 42.2513C88.7536 42.2513 87.9274 41.1795 87.5891 40.2764L85.693 41.1587C86.2375 42.6292 87.6833 44.4361 90.0867 44.4361C92.6402 44.4361 94.7995 42.755 94.7995 38.6586V28.7006H92.734V29.6038ZM96.3014 39.1206H98.4795V22.8181H96.3014V39.1206ZM101.69 33.7425C101.634 31.5995 103.174 30.5074 104.281 30.5074C105.146 30.5074 105.877 30.9903 106.121 31.6842L101.69 33.7425ZM108.45 31.8939C108.037 30.654 106.778 28.3645 104.206 28.3645C101.653 28.3645 99.5311 30.6123 99.5311 33.9106C99.5311 37.02 101.634 39.4568 104.45 39.4568C106.722 39.4568 108.037 37.9021 108.581 36.9989L106.891 35.7382C106.329 36.6628 105.558 37.272 104.45 37.272C103.342 37.272 102.554 36.7046 102.047 35.5915L108.675 32.5241L108.45 31.8939ZM55.6444 30.0662V32.4191H60.6763C60.5261 33.7425 60.1317 34.7088 59.5308 35.3812C58.7988 36.2008 57.6534 37.1039 55.6443 37.1039C52.5462 37.1039 50.1242 34.3099 50.1242 30.8435C50.1242 27.3772 52.5462 24.5828 55.6444 24.5828C57.3155 24.5828 58.5356 25.3183 59.437 26.2636L60.9203 24.6041C59.6625 23.2593 57.9912 22.2299 55.6444 22.2299C51.4008 22.2299 47.8334 26.0956 47.8334 30.8435C47.8334 35.5915 51.4008 39.4568 55.6444 39.4568C57.9352 39.4568 59.6624 38.6169 61.0141 37.0408C62.4036 35.4861 62.8357 33.3014 62.8357 31.5369C62.8357 30.9903 62.7983 30.4865 62.7227 30.0662H55.6444ZM68.5565 37.272C67.0541 37.272 65.7584 35.8854 65.7584 33.9106C65.7584 31.9148 67.0541 30.5492 68.5565 30.5492C70.0583 30.5492 71.3539 31.9148 71.3539 33.9106C71.3539 35.8855 70.0583 37.272 68.5565 37.272ZM68.5565 28.3645C65.8148 28.3645 63.5804 30.6963 63.5804 33.9106C63.5804 37.1039 65.8148 39.4568 68.5565 39.4568C71.2975 39.4568 73.532 37.1039 73.532 33.9106C73.532 30.6963 71.2975 28.3645 68.5565 28.3645ZM79.4107 37.272C77.9089 37.272 76.6131 35.8854 76.6131 33.9106C76.6131 31.9148 77.9089 30.5492 79.4107 30.5492C80.9127 30.5492 82.2083 31.9148 82.2083 33.9106C82.2083 35.8855 80.9127 37.272 79.4107 37.272H79.4107ZM79.4107 28.3645C76.6692 28.3645 74.4352 30.6963 74.4352 33.9106C74.4352 37.1039 76.6692 39.4568 79.4107 39.4568C82.1519 39.4568 84.3864 37.1039 84.3864 33.9106C84.3864 30.6963 82.1519 28.3645 79.4107 28.3645H79.4107Z" fill="white"/>
<path d="M12.2476 9.92575C11.8565 10.3206 11.623 10.9791 11.623 11.8533V11.6557V40.5022V40.3122C11.623 41.1195 11.8232 41.743 12.1624 42.1445L12.2489 42.2372V42.2376C12.5234 42.5147 12.8754 42.6619 13.2788 42.6614C13.673 42.6614 14.1164 42.5208 14.5845 42.2239L31.5015 31.4692L37.3124 27.7747C38.0504 27.3056 38.4647 26.7004 38.5339 26.084V26.0815C38.4647 25.4636 38.0504 24.8589 37.3124 24.3898L31.501 20.6957L14.5845 9.94099C14.1155 9.64357 13.6717 9.50244 13.2765 9.50244C12.8736 9.50244 12.5221 9.64913 12.2477 9.92575H12.2476Z" fill="#00C1FF"/>
<path d="M12.249 42.2368L12.1624 42.1441C11.8232 41.7426 11.623 41.1191 11.623 40.3118V40.5018V11.6625V11.8529C11.623 10.9788 11.8565 10.3202 12.2476 9.92538L26.6875 26.0816L12.249 42.2368Z" fill="url(#paint0_linear_2450_3578)"/>
<path d="M31.5018 31.4692L26.6879 26.082L31.5014 20.6957L37.3128 24.3898C38.0507 24.859 38.465 25.4636 38.5343 26.0815V26.084C38.465 26.7004 38.0507 27.3056 37.3128 27.7746L31.5019 31.4692" fill="url(#paint1_linear_2450_3578)"/>
<path d="M13.2794 42.6611C12.8761 42.6615 12.5241 42.5143 12.2496 42.2372V42.2368L26.6882 26.0816L31.5021 31.4688L14.5851 42.2236C14.117 42.5205 13.6736 42.6611 13.2794 42.6611Z" fill="url(#paint2_linear_2450_3578)"/>
<path d="M26.688 26.082L12.2479 9.92579C12.5224 9.64917 12.8739 9.50247 13.2768 9.50247C13.672 9.50247 14.1159 9.64354 14.5848 9.94102L31.5015 20.6957L26.6879 26.082" fill="url(#paint3_linear_2450_3578)"/>
<path d="M13.2797 42.853C12.8764 42.853 12.5239 42.7058 12.2494 42.4287L12.249 42.4292C12.2478 42.4279 12.2466 42.4267 12.2453 42.4257L12.1703 42.3436C12.1679 42.341 12.1657 42.3381 12.1629 42.3351L12.2495 42.2382C12.524 42.5153 12.8759 42.6625 13.2794 42.662C13.6735 42.662 14.1169 42.5214 14.585 42.2245L31.502 31.4698L31.6104 31.5911L31.5006 31.6608L14.5849 42.4149C14.1584 42.6855 13.7527 42.8265 13.3862 42.85C13.3507 42.852 13.3152 42.853 13.2797 42.853" fill="url(#paint4_linear_2450_3578)"/>
<path d="M12.1624 42.334C11.8232 41.9325 11.623 41.3095 11.623 40.5017V40.3117C11.623 41.119 11.8232 41.7425 12.1624 42.144L12.2489 42.2367L12.1624 42.334Z" fill="url(#paint5_linear_2450_3578)"/>
<path d="M31.6101 31.5903L31.5017 31.469L37.3126 27.7744C38.0506 27.3054 38.4649 26.7002 38.5342 26.0838C38.5342 26.31 38.489 26.5361 38.3994 26.7563C38.2186 27.1999 37.8563 27.6191 37.3127 27.965L31.6101 31.5903" fill="url(#paint6_linear_2450_3578)"/>
<path d="M38.5346 26.0815C38.4654 25.4637 38.0511 24.859 37.3131 24.3898L31.5017 20.6958L31.6101 20.5744H31.6106L37.3131 24.1998C38.1267 24.7174 38.5342 25.3994 38.5346 26.0815Z" fill="url(#paint7_linear_2450_3578)"/>
<path d="M11.623 11.853V11.6538C11.623 11.5819 11.6247 11.5116 11.628 11.4434V11.4403C11.628 11.4394 11.628 11.4384 11.6283 11.4373V11.4297C11.6634 10.7343 11.8565 10.1919 12.1624 9.82971L12.2476 9.92541C11.8565 10.3203 11.623 10.9789 11.623 11.853Z" fill="url(#paint8_linear_2450_3578)"/>
<path d="M31.4998 20.6958L14.5833 9.94099C14.1143 9.64356 13.6705 9.5025 13.2753 9.5025C12.8724 9.5025 12.5209 9.64919 12.2464 9.92581L12.1612 9.83005C12.1878 9.79853 12.2155 9.76813 12.2441 9.73892C12.245 9.73786 12.2464 9.73681 12.2473 9.73581C12.5196 9.4613 12.8674 9.31461 13.2667 9.31197H13.2753C13.6705 9.31197 14.1143 9.45309 14.5833 9.75064L31.6087 20.5741L31.6082 20.5745L31.4998 20.6958Z" fill="url(#paint9_linear_2450_3578)"/>
<defs>
<linearGradient id="paint0_linear_2450_3578" x1="20.851" y1="11.3577" x2="7.03238" y2="23.7479" gradientUnits="userSpaceOnUse">
<stop stop-color="#00A0FF"/>
<stop offset="0.00657" stop-color="#00A1FF"/>
<stop offset="0.2601" stop-color="#00BEFF"/>
<stop offset="0.5122" stop-color="#00D2FF"/>
<stop offset="0.7604" stop-color="#00DFFF"/>
<stop offset="1" stop-color="#00E3FF"/>
</linearGradient>
<linearGradient id="paint1_linear_2450_3578" x1="39.4334" y1="25.9889" x2="11.2325" y2="25.9889" gradientUnits="userSpaceOnUse">
<stop stop-color="#FFE000"/>
<stop offset="0.4087" stop-color="#FFBD00"/>
<stop offset="0.7754" stop-color="#FFA500"/>
<stop offset="1" stop-color="#FF9C00"/>
</linearGradient>
<linearGradient id="paint2_linear_2450_3578" x1="28.9463" y1="31.2036" x2="5.54857" y2="52.0296" gradientUnits="userSpaceOnUse">
<stop stop-color="#FF3A44"/>
<stop offset="1" stop-color="#C31162"/>
</linearGradient>
<linearGradient id="paint3_linear_2450_3578" x1="8.52635" y1="7.53055" x2="18.956" y2="16.8281" gradientUnits="userSpaceOnUse">
<stop stop-color="#32A071"/>
<stop offset="0.0685" stop-color="#2DA771"/>
<stop offset="0.4762" stop-color="#15CF74"/>
<stop offset="0.8009" stop-color="#06E775"/>
<stop offset="1" stop-color="#00F076"/>
</linearGradient>
<linearGradient id="paint4_linear_2450_3578" x1="28.9357" y1="34.9414" x2="10.1825" y2="51.7563" gradientUnits="userSpaceOnUse">
<stop stop-color="#CC2E36"/>
<stop offset="1" stop-color="#9C0E4E"/>
</linearGradient>
<linearGradient id="paint5_linear_2450_3578" x1="13.5466" y1="11.3575" x2="1.37258" y2="22.2733" gradientUnits="userSpaceOnUse">
<stop stop-color="#008DE0"/>
<stop offset="0.00657" stop-color="#008DE0"/>
<stop offset="0.2601" stop-color="#00A7E0"/>
<stop offset="0.5122" stop-color="#00B8E0"/>
<stop offset="0.7604" stop-color="#00C4E0"/>
<stop offset="1" stop-color="#00C7E0"/>
</linearGradient>
<linearGradient id="paint6_linear_2450_3578" x1="39.4333" y1="26.0826" x2="11.2324" y2="26.0826" gradientUnits="userSpaceOnUse">
<stop stop-color="#E0C500"/>
<stop offset="0.4087" stop-color="#E0A600"/>
<stop offset="0.7754" stop-color="#E09100"/>
<stop offset="1" stop-color="#E08900"/>
</linearGradient>
<linearGradient id="paint7_linear_2450_3578" x1="39.4338" y1="26.0828" x2="11.233" y2="26.0828" gradientUnits="userSpaceOnUse">
<stop stop-color="#FFE840"/>
<stop offset="0.4087" stop-color="#FFCE40"/>
<stop offset="0.7754" stop-color="#FFBC40"/>
<stop offset="1" stop-color="#FFB540"/>
</linearGradient>
<linearGradient id="paint8_linear_2450_3578" x1="13.5347" y1="11.3799" x2="1.86595" y2="21.3893" gradientUnits="userSpaceOnUse">
<stop stop-color="#40B8FF"/>
<stop offset="0.00657" stop-color="#40B9FF"/>
<stop offset="0.2601" stop-color="#40CEFF"/>
<stop offset="0.5122" stop-color="#40DDFF"/>
<stop offset="0.7604" stop-color="#40E7FF"/>
<stop offset="1" stop-color="#40EAFF"/>
</linearGradient>
<linearGradient id="paint9_linear_2450_3578" x1="8.50375" y1="10.9473" x2="16.8779" y2="18.456" gradientUnits="userSpaceOnUse">
<stop stop-color="#65B895"/>
<stop offset="0.0685" stop-color="#62BD95"/>
<stop offset="0.4762" stop-color="#50DB97"/>
<stop offset="0.8009" stop-color="#44ED98"/>
<stop offset="1" stop-color="#40F498"/>
</linearGradient>
</defs>
</svg>
