<svg width="37" height="37" viewBox="0 0 37 37" fill="none" xmlns="http://www.w3.org/2000/svg">
<path d="M23.2595 7.87476L25.3906 12.137C25.6778 12.7265 26.4486 13.2857 27.0985 13.4066L30.9527 14.0414C33.4164 14.4495 33.9907 16.233 32.2223 18.0165L29.2145 21.0243C28.7158 21.523 28.4286 22.5055 28.5949 23.2158L29.4564 26.934C30.1365 29.8662 28.5646 31.0149 25.9801 29.4732L22.3677 27.327C21.7178 26.934 20.6296 26.934 19.9797 27.327L16.3673 29.4732C13.7828 30.9997 12.2109 29.8662 12.891 26.934L13.7526 23.2158C13.9188 22.5206 13.6316 21.5382 13.1329 21.0243L10.1251 18.0165C8.35673 16.2481 8.93107 14.4646 11.3947 14.0414L15.2489 13.4066C15.8988 13.3008 16.6696 12.7265 16.9568 12.137L19.0879 7.87476C20.2215 5.56226 22.0957 5.56226 23.2595 7.87476Z" stroke="#25262F" stroke-width="1.70037" stroke-linecap="round" stroke-linejoin="round"/>
<path d="M12.0915 7.55713H3.02287" stroke="#25262F" stroke-width="1.70037" stroke-linecap="round" stroke-linejoin="round"/>
<path d="M7.55719 28.7173H3.02287" stroke="#25262F" stroke-width="1.70037" stroke-linecap="round" stroke-linejoin="round"/>
<path d="M4.53431 18.1372H3.02287" stroke="#25262F" stroke-width="1.70037" stroke-linecap="round" stroke-linejoin="round"/>
</svg>
