<svg width="46" height="46" viewBox="0 0 46 46" fill="none" xmlns="http://www.w3.org/2000/svg">
<path d="M19.2616 4.84881L7.72326 12.3813C4.02409 14.7963 4.02409 20.2013 7.72326 22.6163L19.2616 30.1488C21.3316 31.5096 24.7433 31.5096 26.8133 30.1488L38.2941 22.6163C41.9741 20.2013 41.9741 14.8155 38.2941 12.4005L26.8133 4.86797C24.7433 3.48797 21.3316 3.48797 19.2616 4.84881Z" stroke="#F4F6FF" stroke-width="3" stroke-linecap="round" stroke-linejoin="round"/>
<path d="M10.7929 25.0703L10.7737 34.0595C10.7737 36.4936 12.6521 39.1003 14.9521 39.867L21.0662 41.8986C22.1204 42.2436 23.8646 42.2436 24.9379 41.8986L31.0521 39.867C33.3521 39.1003 35.2304 36.4936 35.2304 34.0595V25.1661" stroke="#F4F6FF" stroke-width="3" stroke-linecap="round" stroke-linejoin="round"/>
<path d="M41.0137 28.7502V17.2502" stroke="#F4F6FF" stroke-width="3" stroke-linecap="round" stroke-linejoin="round"/>
</svg>
