<svg width="84" height="65" viewBox="0 0 84 65" fill="none" xmlns="http://www.w3.org/2000/svg">
<path d="M7.39817 5.55521C2.58445 10.71 0 16.4915 0 25.8634C0 42.355 11.4828 57.1362 28.1813 64.4443L32.3547 57.9514C16.7686 49.4511 13.7214 38.4206 12.5063 31.4659C15.016 32.7758 18.3015 33.2328 21.5215 32.9313C29.9525 32.1444 36.5983 25.1661 36.5983 16.4915C36.5983 12.1176 34.8749 7.92294 31.8073 4.83017C28.7397 1.73739 24.5792 -0.000106812 20.241 -0.000106812C17.8418 0.0207672 15.4708 0.522697 13.2659 1.47644C11.061 2.43019 9.06639 3.8167 7.39817 5.55521ZM54.1333 5.55521C49.3195 10.71 46.7351 16.4915 46.7351 25.8634C46.7351 42.355 58.2179 57.1362 74.9164 64.4443L79.0898 57.9514C63.5036 49.4511 60.4565 38.4206 59.2414 31.4659C61.7511 32.7758 65.0366 33.2328 68.2566 32.9313C76.6876 32.1444 83.3333 25.1661 83.3333 16.4915C83.3333 12.1176 81.61 7.92294 78.5424 4.83017C75.4748 1.73739 71.3143 -0.000106812 66.9761 -0.000106812C64.5769 0.0207672 62.2059 0.522697 60.001 1.47644C57.7961 2.43019 55.8015 3.8167 54.1333 5.55521Z" fill="#F4F6FF"/>
</svg>
