<svg width="68" height="53" viewBox="0 0 68 53" fill="none" xmlns="http://www.w3.org/2000/svg">
<path d="M61.7607 4.50167C65.6758 8.67884 67.7778 13.3638 67.7778 20.9583C67.7778 34.3222 58.4385 46.3001 44.8571 52.2222L41.4627 46.9606C54.1394 40.0725 56.6177 31.134 57.606 25.4982C55.5648 26.5597 52.8926 26.9301 50.2737 26.6857C43.4165 26.0481 38.0113 20.3932 38.0113 13.3638C38.0113 9.8195 39.4129 6.42035 41.9079 3.91413C44.4029 1.40792 47.7868 -5.34058e-05 51.3152 -5.34058e-05C53.2665 0.0168648 55.1949 0.423599 56.9882 1.19646C58.7815 1.96933 60.4038 3.09287 61.7607 4.50167ZM23.7495 4.50167C27.6646 8.67884 29.7666 13.3638 29.7666 20.9583C29.7666 34.3222 20.4273 46.3001 6.84587 52.2222L3.45147 46.9606C16.1282 40.0725 18.6065 31.134 19.5948 25.4982C17.5536 26.5597 14.8814 26.9301 12.2625 26.6857C5.40525 26.0481 5.34058e-05 20.3932 5.34058e-05 13.3638C5.34058e-05 9.8195 1.40171 6.42035 3.89668 3.91413C6.39165 1.40792 9.77556 -5.34058e-05 13.304 -5.34058e-05C15.2553 0.0168648 17.1837 0.423599 18.977 1.19646C20.7703 1.96933 22.3926 3.09287 23.7495 4.50167Z" fill="#F4F6FF"/>
</svg>
